<?xml version="1.0" encoding="UTF-8"?><svg font-size="1" height="400.0000" stroke="rgb(0,0,0)" stroke-opacity="1" version="1.1" viewBox="0.0 0.0 400.0 400.0" width="400.0000" xmlns="http://www.w3.org/2000/svg" xmlns:xlink="http://www.w3.org/1999/xlink"><g fill="rgb(0,0,0)" fill-opacity="1.0" stroke="rgb(0,0,0)" stroke-linecap="butt" stroke-linejoin="miter" stroke-miterlimit="10.0" stroke-opacity="1.0" stroke-width="0.0"><path class="node" d="M 170.7265,127.5748 l -0.0000,-29.2359 h -16.5492 l -0.0000,29.2359 Z" fill-opacity="1.0"/><path class="bgnode" d="M 169.3976,126.2458 l -0.0000,-26.5781 h -13.8914 l -0.0000,26.5781 Z" fill="rgb(255,255,255)" fill-opacity="1.0"/><path class="nlabel" d="M 158.1640,119.6466 ZM 162.4904,114.0884 c 1.3087,-0.0000 1.3549,-0.2002 1.4011 -1.0470c 0.0924,-0.0924 0.4157,-0.0924 0.5081 -0.0000c -0.0154,0.3695 -0.0308,0.8930 -0.0308 1.3241c 0.0000,0.5281 0.0154,0.9546 0.0308 1.3549c -0.0924,0.0924 -0.4157,0.0924 -0.5081 -0.0000c -0.0462,-0.6928 -0.0924,-1.0470 -1.4011 -1.0470h -1.4011 v 3.4026 c 0.0000,0.7236 0.2155,0.9700 0.8622 0.9700h 1.7860 c 1.1701,-0.0000 1.7090,-0.9084 2.0169 -2.0169c 0.2017,-0.0493 0.3788,-0.0139 0.5389 0.0770c -0.1232,0.7852 -0.3541,1.8014 -0.5697 2.5712c 0.0000,-0.0000 -1.2317,-0.0308 -1.9707 -0.0308h -3.3102 c -0.5081,-0.0000 -1.4319,0.0154 -2.0015 0.0308c -0.0924,-0.0924 -0.0924,-0.4157 0.0000 -0.5081c 1.0777,-0.0462 1.3395,-0.1232 1.3395 -1.4011v -6.1740 c 0.0000,-1.2779 -0.2617,-1.3549 -1.3395 -1.4011c -0.0924,-0.0924 -0.0924,-0.4157 0.0000 -0.5081c 0.6159,0.0154 1.5165,0.0308 1.9861 0.0308h 3.9261 c 0.3695,-0.0000 0.4927,-0.0154 0.7544 -0.0616c 0.0462,-0.0000 0.0616,0.0154 0.0616 0.0462c 0.0308,0.1232 0.2617,1.6012 0.3387 2.2325c -0.1509,0.0724 -0.3172,0.1047 -0.5081 0.0770c -0.3387,-1.0624 -0.5851,-1.6782 -1.7398 -1.6782h -1.1547 c -0.8314,-0.0000 -1.0162,0.3079 -1.0162 0.9854v 2.7714 h 1.4011 Z" fill-opacity="1.0"/></g><g fill="rgb(0,0,0)" fill-opacity="1.0" stroke="rgb(0,0,0)" stroke-linecap="butt" stroke-linejoin="miter" stroke-miterlimit="10.0" stroke-opacity="1.0" stroke-width="0.0"><path class="node" d="M 201.0710,324.2525 l -0.0000,-29.2359 h -18.7663 l -0.0000,29.2359 Z" fill-opacity="1.0"/><path class="bgnode" d="M 199.7421,322.9236 l -0.0000,-26.5781 h -16.1085 l -0.0000,26.5781 Z" fill="rgb(255,255,255)" fill-opacity="1.0"/><path class="nlabel" d="M 186.2914,316.3243 ZM 189.2321,315.0310 c 0.0000,0.4927 0.1694,0.8006 1.6782 0.8006c 2.1709,-0.0000 4.0339,-0.7698 4.0339 -3.8799c 0.0000,-2.3710 -1.0931,-5.0654 -4.4188 -5.0654c -0.7544,-0.0000 -1.2933,0.2155 -1.2933 0.7544v 7.3903 ZM 189.2321,315.0310 ZM 188.5700,306.3936 c 0.6005,-0.0000 1.4473,-0.0308 2.5404 -0.0308c 2.9561,-0.0000 5.3118,2.3557 5.3118 5.2194c 0.0000,3.7875 -2.8637,4.7729 -5.0346 4.7729c -1.5858,-0.0000 -2.2325,-0.0308 -2.8021 -0.0308c -0.5804,-0.0000 -1.4011,0.0154 -2.0015 0.0308c -0.0924,-0.0924 -0.0924,-0.4157 0.0000 -0.5081c 1.0777,-0.0462 1.3395,-0.1232 1.3395 -1.4011v -6.1740 c 0.0000,-1.2779 -0.2617,-1.3549 -1.3395 -1.4011c -0.0924,-0.0924 -0.0924,-0.4157 0.0000 -0.5081c 0.6159,0.0154 1.4365,0.0308 1.9861 0.0308Z" fill-opacity="1.0"/></g><g fill="rgb(0,0,0)" fill-opacity="1.0" stroke="rgb(0,0,0)" stroke-linecap="butt" stroke-linejoin="miter" stroke-miterlimit="10.0" stroke-opacity="1.0" stroke-width="0.0"><path class="node" d="M 170.0828,225.9136 l -0.0000,-29.2359 h -17.9195 l -0.0000,29.2359 Z" fill-opacity="1.0"/><path class="bgnode" d="M 168.7539,224.5847 l -0.0000,-26.5781 h -15.2617 l -0.0000,26.5781 Z" fill="rgb(255,255,255)" fill-opacity="1.0"/><path class="nlabel" d="M 156.1500,217.9854 ZM 161.6465,218.1394 c -3.3102,-0.0000 -4.9269,-2.2510 -4.9269 -4.9269c 0.0000,-1.6058 0.6097,-3.1132 1.6320 -4.0493c 0.9084,-0.8314 2.0015,-1.3087 3.3102 -1.3087c 1.8938,-0.0000 2.5866,0.6159 3.3718 0.6928c 0.1540,0.8468 0.2617,1.5858 0.3387 2.3864c -0.1740,0.0924 -0.3233,0.1386 -0.5081 0.0770c -0.4003,-1.3241 -1.2471,-2.5866 -3.3718 -2.5866c -0.8006,-0.0000 -1.6936,0.4311 -2.4573 1.3703c -0.5620,0.6913 -0.9145,1.7968 -0.9145 3.1255c 0.0000,2.2479 1.4380,4.5881 3.5104 4.5881c 1.4319,-0.0000 2.4788,-0.4773 3.5720 -1.6782c 0.1694,-0.0000 0.2771,0.0924 0.3541 0.2309c -1.0470,1.3703 -2.4172,2.0785 -3.9107 2.0785Z" fill-opacity="1.0"/></g><g fill="rgb(0,0,0)" fill-opacity="1.0" stroke="rgb(0,0,0)" stroke-linecap="butt" stroke-linejoin="miter" stroke-miterlimit="10.0" stroke-opacity="1.0" stroke-width="0.0"><path class="node" d="M 216.1479,29.2359 l -0.0000,-29.2359 h -17.0265 l -0.0000,29.2359 Z" fill-opacity="1.0"/><path class="bgnode" d="M 214.8190,27.9070 l -0.0000,-26.5781 h -14.3687 l -0.0000,26.5781 Z" fill="rgb(255,255,255)" fill-opacity="1.0"/><path class="nlabel" d="M 203.1081,21.3077 ZM 206.0488,12.8397 v 2.8329 h 1.1393 c 1.2779,-0.0000 2.1863,-0.4619 2.1863 -1.7706c 0.0000,-1.5704 -1.1239,-2.0323 -1.9861 -2.0323c -1.3395,-0.0000 -1.3395,0.1540 -1.3395 0.9700ZM 206.0488,12.8397 ZM 206.0488,16.1961 v 3.2948 c 0.0000,0.9392 0.2002,1.3395 1.2779 1.3395c 2.3403,-0.0000 2.7714,-0.9392 2.7714 -2.0631c 0.0000,-1.3857 -0.8776,-2.5712 -2.9869 -2.5712h -1.0624 ZM 206.0488,16.1961 ZM 205.3868,11.3770 c 0.5543,-0.0000 1.3857,-0.0308 1.9246 -0.0308c 2.8637,-0.0000 3.3102,1.3395 3.3102 2.3710c 0.0000,0.8360 -0.6913,1.6259 -1.4627 2.0169v 0.0308 c 1.3395,0.3849 2.3710,1.2317 2.3710 2.7098c 0.0000,1.3241 -0.8160,2.8637 -3.8799 2.8637c -1.2933,-0.0000 -1.6982,-0.0308 -2.2479 -0.0308c -0.5712,-0.0000 -1.4011,0.0154 -2.0015 0.0308c -0.0924,-0.0924 -0.0924,-0.4157 0.0000 -0.5081c 1.0777,-0.0462 1.3395,-0.1232 1.3395 -1.4011v -6.1740 c 0.0000,-1.2779 -0.2617,-1.3549 -1.3395 -1.4011c -0.0924,-0.0924 -0.0924,-0.4157 0.0000 -0.5081c 0.6005,0.0154 1.4365,0.0308 1.9861 0.0308Z" fill-opacity="1.0"/></g><g fill="rgb(0,0,0)" fill-opacity="1.0" stroke="rgb(0,0,0)" stroke-linecap="butt" stroke-linejoin="miter" stroke-miterlimit="10.0" stroke-opacity="1.0" stroke-width="0.0"><path class="node" d="M 201.0248,400.0000 l -0.0000,-29.2359 h -18.6739 l -0.0000,29.2359 Z" fill-opacity="1.0"/><path class="bgnode" d="M 199.6959,398.6711 l -0.0000,-26.5781 h -16.0161 l -0.0000,26.5781 Z" fill="rgb(255,255,255)" fill-opacity="1.0"/><path class="nlabel" d="M 186.3375,392.0718 ZM 190.3868,387.7146 h 2.7252 l -1.4473,-4.1878 h -0.0924 l -1.5735,3.9831 c -0.0585,0.1586 0.0493,0.2048 0.3880 0.2048ZM 190.3868,387.7146 ZM 188.7240,390.8555 c -0.2402,0.6328 0.4834,0.6990 1.0624 0.7390c 0.0924,0.0924 0.0924,0.4157 0.0000 0.5081c -0.5697,-0.0154 -1.3395,-0.0308 -1.9707 -0.0308c -0.4665,-0.0000 -0.9700,0.0154 -1.3703 0.0308c -0.0924,-0.0924 -0.0924,-0.4157 0.0000 -0.5081c 0.6697,-0.0462 1.1393,-0.1386 1.5396 -1.0931l 3.4950,-8.2525 c 0.2002,-0.0000 0.6159,-0.1694 0.8468 -0.3079l 3.1717,8.8068 c 0.2679,0.7421 0.7883,0.7929 1.3857 0.8468c 0.0924,0.0924 0.0924,0.4157 0.0000 0.5081c -0.5389,-0.0154 -1.1239,-0.0308 -1.7552 -0.0308c -0.6005,-0.0000 -1.4473,0.0154 -2.0169 0.0308c -0.0924,-0.0924 -0.0924,-0.4157 0.0000 -0.5081c 0.7329,-0.0523 1.3210,-0.1001 1.1393 -0.6313l -0.8930,-2.6020 h -3.2486 c -0.3695,-0.0000 -0.4619,0.0616 -0.5389 0.2617Z" fill-opacity="1.0"/></g><g fill="rgb(0,0,0)" fill-opacity="0.0" stroke="rgb(0,0,0)" stroke-linecap="butt" stroke-linejoin="miter" stroke-miterlimit="10.0" stroke-opacity="1.0" stroke-width="0.6644518272425249"><path class="edge" d="M 227.9353,33.0211 c 16.0559,14.9623 49.0564,50.3636 47.8156 87.5598c 0.0000,-0.0000 0.0000,-0.0000 -6.4671 193.8647c -0.9629,28.8639 -31.2787,48.5416 -53.6603 59.1758" fill="none" fill-opacity="0.0"/><path class="edge" d="M 227.7088,33.2642 l 0.4530,-0.4861 l -11.7874,-10.9844 l -0.4530,0.4861 Z" fill-opacity="1.0" stroke-width="0.0"/><path class="edge" d="M 215.4904,373.3414 l -0.6002,0.2852 l -8.6102,-0.6906 l -5.2804,7.6584 l 9.2725,0.7438 l 4.9032,-7.1113 l 0.6002,-0.2852 l -0.1426,-0.3001 l -1.2003,0.5703 l -4.4094,6.3951 l -7.7430,-0.6211 l 4.4094,-6.3951 l 7.7430,0.6211 l 1.2003,-0.5703 l -0.1426,-0.3001 Z" fill-opacity="1.0" stroke-width="0.0"/><path class="elabel" d="M 228.5123,392.1290 ZM 232.9465,390.2507 c 0.0000,1.2779 0.2617,1.3549 1.3395 1.4011c 0.0924,0.0924 0.0924,0.4157 0.0000 0.5081c -0.7698,-0.0154 -1.1455,-0.0308 -1.8784 -0.0308c -0.8345,-0.0000 -1.3857,0.0154 -2.1401 0.0308c -0.0924,-0.0924 -0.0924,-0.4157 0.0000 -0.5081c 1.0777,-0.0462 1.4935,-0.1232 1.4935 -1.4011v -5.0192 c 0.0000,-0.5235 -0.0539,-0.8930 -0.3079 -0.8930c -0.2925,-0.0000 -0.6390,0.0924 -1.3395 0.3849c -0.1386,-0.0939 -0.2063,-0.2402 -0.2309 -0.4157c 1.3549,-0.6313 2.1663,-1.0115 3.0177 -1.5396c 0.0539,-0.0000 0.0924,0.0031 0.0924 0.0770c -0.0262,0.2002 -0.0462,1.1393 -0.0462 2.0631v 5.3426 ZM 235.6716,392.1290 ZM 236.5492,391.4670 c 0.0000,-0.4465 0.3695,-0.8160 0.8160 -0.8160c 0.4465,-0.0000 0.8160,0.3695 0.8160 0.8160c 0.0000,0.4465 -0.3695,0.8160 -0.8160 0.8160c -0.4465,-0.0000 -0.8160,-0.3695 -0.8160 -0.8160ZM 239.0588,392.1290 ZM 239.9364,391.4670 c 0.0000,-0.4465 0.3695,-0.8160 0.8160 -0.8160c 0.4465,-0.0000 0.8160,0.3695 0.8160 0.8160c 0.0000,0.4465 -0.3695,0.8160 -0.8160 0.8160c -0.4465,-0.0000 -0.8160,-0.3695 -0.8160 -0.8160ZM 242.4461,392.1290 ZM 243.3852,384.9235 c 0.0000,-0.9238 1.0624,-2.1863 2.7714 -2.1863c 1.2471,-0.0000 2.6020,0.6774 2.6020 2.3403c 0.0000,1.1701 -0.6620,1.8476 -1.5396 2.6944l -1.5550,1.4935 c -0.0770,0.0770 -1.1393,1.1239 -1.1393 1.8630h 2.7406 c 0.5543,-0.0000 0.8160,-0.3849 1.0777 -1.4781c 0.1540,-0.0308 0.3541,-0.0000 0.4465 0.0770c -0.0154,0.4619 -0.1694,1.6166 -0.3695 2.4326c 0.0000,-0.0000 -0.7082,-0.0308 -1.2009 -0.0308h -2.6944 c -0.4927,-0.0000 -1.2779,0.0308 -1.2779 0.0308c 0.0000,-0.9084 0.2463,-1.6474 1.7552 -3.1871l 1.1393,-1.1239 c 0.9084,-0.9238 1.2625,-1.7244 1.2625 -2.7098c 0.0000,-1.4781 -0.7852,-1.8630 -1.3395 -1.8630c -1.1239,-0.0000 -1.5242,0.5543 -1.5242 0.9392c 0.0000,0.1232 0.0924,0.2617 0.1232 0.3695c 0.0308,0.1078 0.0616,0.2002 0.0616 0.3233c 0.0000,0.3403 -0.4619,0.6159 -0.7236 0.6159c -0.3233,-0.0000 -0.6159,-0.2771 -0.6159 -0.6005Z" fill-opacity="1.0" stroke-width="0.0"/><path class="elabel" d="M 227.9374,31.5716 ZM 231.5093,22.7187 c -0.6928,-0.0000 -1.6320,0.7082 -1.6320 4.4958c 0.0000,1.3395 0.1540,3.9723 1.5858 3.9723c 0.2771,-0.0000 1.0316,-0.1386 1.3703 -1.4011c 0.2155,-0.7852 0.2617,-1.7552 0.2617 -3.1717c 0.0000,-2.0631 -0.4157,-3.2332 -0.8930 -3.6336c -0.1848,-0.1694 -0.4311,-0.2617 -0.6928 -0.2617ZM 231.5093,22.7187 ZM 231.4478,31.7256 c -0.5958,-0.0000 -1.1239,-0.2094 -1.5612 -0.6466c -0.8422,-0.8391 -1.3487,-2.3926 -1.3487 -4.0339c 0.0000,-3.0485 1.4473,-4.8653 2.9715 -4.8653c 0.8314,-0.0000 1.4750,0.4665 1.8784 1.0008c 0.6774,0.8930 1.0470,2.2017 1.0470 3.7259c 0.0000,3.6182 -1.8014,4.8191 -2.9869 4.8191ZM 235.0967,31.5716 ZM 235.9743,30.9095 c 0.0000,-0.4465 0.3695,-0.8160 0.8160 -0.8160c 0.4465,-0.0000 0.8160,0.3695 0.8160 0.8160c 0.0000,0.4465 -0.3695,0.8160 -0.8160 0.8160c -0.4465,-0.0000 -0.8160,-0.3695 -0.8160 -0.8160ZM 238.4839,31.5716 ZM 239.3615,30.9095 c 0.0000,-0.4465 0.3695,-0.8160 0.8160 -0.8160c 0.4465,-0.0000 0.8160,0.3695 0.8160 0.8160c 0.0000,0.4465 -0.3695,0.8160 -0.8160 0.8160c -0.4465,-0.0000 -0.8160,-0.3695 -0.8160 -0.8160ZM 241.8711,31.5716 ZM 242.8103,24.3661 c 0.0000,-0.9238 1.0624,-2.1863 2.7714 -2.1863c 1.2471,-0.0000 2.6020,0.6774 2.6020 2.3403c 0.0000,1.1701 -0.6620,1.8476 -1.5396 2.6944l -1.5550,1.4935 c -0.0770,0.0770 -1.1393,1.1239 -1.1393 1.8630h 2.7406 c 0.5543,-0.0000 0.8160,-0.3849 1.0777 -1.4781c 0.1540,-0.0308 0.3541,-0.0000 0.4465 0.0770c -0.0154,0.4619 -0.1694,1.6166 -0.3695 2.4326c 0.0000,-0.0000 -0.7082,-0.0308 -1.2009 -0.0308h -2.6944 c -0.4927,-0.0000 -1.2779,0.0308 -1.2779 0.0308c 0.0000,-0.9084 0.2463,-1.6474 1.7552 -3.1871l 1.1393,-1.1239 c 0.9084,-0.9238 1.2625,-1.7244 1.2625 -2.7098c 0.0000,-1.4781 -0.7852,-1.8630 -1.3395 -1.8630c -1.1239,-0.0000 -1.5242,0.5543 -1.5242 0.9392c 0.0000,0.1232 0.0924,0.2617 0.1232 0.3695c 0.0308,0.1078 0.0616,0.2002 0.0616 0.3233c 0.0000,0.3403 -0.4619,0.6159 -0.7236 0.6159c -0.3233,-0.0000 -0.6159,-0.2771 -0.6159 -0.6005Z" fill-opacity="1.0" stroke-width="0.0"/><path class="elabel" d="M 269.5368,120.8191 ZM 270.1989,114.2140 l 0.7082,-0.0015 c 0.0000,-1.7075 -0.0462,-1.6058 -0.0462 -1.7844c 0.0000,-0.1062 0.1540,-0.1586 0.3387 -0.2109c 0.1925,-0.0539 0.3495,-0.1201 0.5235 -0.2171c 0.1432,-0.0785 0.2741,-0.1386 0.3433 -0.1386c 0.0724,-0.0000 0.1186,0.0370 0.1186 0.1355c 0.0000,-0.0000 -0.0616,0.6159 -0.0616 1.6166v 0.6005 h 1.8476 c 0.0770,-0.0000 0.1232,0.0308 0.1232 0.0924v 0.3079 c 0.0000,0.1386 -0.2155,0.2002 -0.3695 0.2002h -1.6012 v 3.8953 c 0.0000,0.9546 0.0924,1.4165 0.5081 1.4165c 0.4003,-0.0000 0.8622,-0.1232 1.2625 -0.4311c 0.1540,0.0154 0.2463,0.1032 0.2771 0.2617c -0.6005,0.6774 -1.3703,1.0162 -2.0785 1.0162c -0.7082,-0.0000 -1.1855,-0.4311 -1.1855 -1.5242v -4.6343 h -0.9084 c -0.0616,-0.0000 -0.0770,-0.0154 -0.0770 -0.0924v -0.2002 c 0.0000,-0.1232 0.0616,-0.3079 0.2771 -0.3079Z" fill-opacity="1.0" stroke-width="0.0"/></g><g fill="rgb(0,0,0)" fill-opacity="0.0" stroke="rgb(0,0,0)" stroke-linecap="butt" stroke-linejoin="miter" stroke-miterlimit="10.0" stroke-opacity="1.0" stroke-width="0.6644518272425249"><path class="edge" d="M 162.1371,135.9461 c -0.1761,13.1878 -0.4757,35.5839 -0.7042 52.7147" fill="none" fill-opacity="0.0"/><path class="edge" d="M 161.8049,135.9417 l 0.6644,0.0089 l 0.1118,-8.3713 l -0.6644,-0.0089 Z" fill-opacity="1.0" stroke-width="0.0"/><path class="edge" d="M 161.0785,188.6560 h 0.0000 l -4.3186,-0.0576 l 4.5433,8.1174 l 4.7582,-7.9933 l -4.3186,-0.0576 h 0.0000 l -0.3322,-0.0044 l -0.0089,0.6644 l 3.5000,0.0467 l -3.5809,6.0155 l -3.4191,-6.1088 l 3.5000,0.0467 l 0.0089,-0.6644 l 0.3322,0.0044 Z" fill-opacity="1.0" stroke-width="0.0"/></g><g fill="rgb(0,0,0)" fill-opacity="0.0" stroke="rgb(0,0,0)" stroke-linecap="butt" stroke-linejoin="miter" stroke-miterlimit="10.0" stroke-opacity="1.0" stroke-width="0.6644518272425249"><path class="edge" d="M 191.6878,332.6246 c 0.0000,8.1694 0.0000,19.8755 0.0000 30.1218" fill="none" fill-opacity="0.0"/><path class="edge" d="M 191.3556,332.6246 l 0.6645,-0.0000 l -0.0000,-8.3721 l -0.6645,-0.0000 Z" fill-opacity="1.0" stroke-width="0.0"/><path class="edge" d="M 191.3334,362.7464 h 0.0000 l -4.3189,0.0000 l 4.6512,8.0561 l 4.6512,-8.0561 l -4.3189,-0.0000 h 0.0000 l -0.3322,-0.0000 l -0.0000,0.6645 l 3.5003,0.0000 l -3.5003,6.0627 l -3.5003,-6.0627 l 3.5003,-0.0000 l -0.0000,-0.6645 l 0.3322,-0.0000 Z" fill-opacity="1.0" stroke-width="0.0"/></g><g fill="rgb(0,0,0)" fill-opacity="0.0" stroke="rgb(0,0,0)" stroke-linecap="butt" stroke-linejoin="miter" stroke-miterlimit="10.0" stroke-opacity="1.0" stroke-width="0.6644518272425249"><path class="edge" d="M 192.9193,286.9723 c 2.3970,-44.3956 11.0900,-205.3806 13.4833 -249.6921" fill="none" fill-opacity="0.0"/><path class="edge" d="M 193.2511,286.9902 l -0.6635,-0.0358 l -0.4343,8.0443 l 0.6635,0.0358 Z" fill-opacity="1.0" stroke-width="0.0"/><path class="edge" d="M 206.7344,37.2981 l -0.6635,-0.0358 l 0.4345,-8.0443 l 0.6635,0.0358 Z" fill-opacity="1.0" stroke-width="0.0"/><path class="elabel" d="M 184.0916,46.8547 ZM 188.5258,44.9763 c 0.0000,1.2779 0.2617,1.3549 1.3395 1.4011c 0.0924,0.0924 0.0924,0.4157 0.0000 0.5081c -0.7698,-0.0154 -1.1455,-0.0308 -1.8784 -0.0308c -0.8345,-0.0000 -1.3857,0.0154 -2.1401 0.0308c -0.0924,-0.0924 -0.0924,-0.4157 0.0000 -0.5081c 1.0777,-0.0462 1.4935,-0.1232 1.4935 -1.4011v -5.0192 c 0.0000,-0.5235 -0.0539,-0.8930 -0.3079 -0.8930c -0.2925,-0.0000 -0.6390,0.0924 -1.3395 0.3849c -0.1386,-0.0939 -0.2063,-0.2402 -0.2309 -0.4157c 1.3549,-0.6313 2.1663,-1.0115 3.0177 -1.5396c 0.0539,-0.0000 0.0924,0.0031 0.0924 0.0770c -0.0262,0.2002 -0.0462,1.1393 -0.0462 2.0631v 5.3426 ZM 191.2510,46.8547 ZM 192.1286,46.1926 c 0.0000,-0.4465 0.3695,-0.8160 0.8160 -0.8160c 0.4465,-0.0000 0.8160,0.3695 0.8160 0.8160c 0.0000,0.4465 -0.3695,0.8160 -0.8160 0.8160c -0.4465,-0.0000 -0.8160,-0.3695 -0.8160 -0.8160ZM 194.6382,46.8547 ZM 195.5158,46.1926 c 0.0000,-0.4465 0.3695,-0.8160 0.8160 -0.8160c 0.4465,-0.0000 0.8160,0.3695 0.8160 0.8160c 0.0000,0.4465 -0.3695,0.8160 -0.8160 0.8160c -0.4465,-0.0000 -0.8160,-0.3695 -0.8160 -0.8160ZM 198.0254,46.8547 ZM 200.6120,38.4328 c -0.2002,-0.0462 -0.4157,-0.0616 -0.6466 -0.0616c -0.7544,-0.0000 -1.2471,-0.1078 -1.2471 -0.5697c 0.0000,-0.2155 0.1386,-0.4619 0.5081 -0.4619c 0.5235,-0.0000 0.8006,0.5081 1.4781 0.7852c -0.0616,-0.6005 -0.3541,-1.0162 -0.3541 -1.4165c 0.0000,-0.3233 0.1848,-0.6005 0.4619 -0.6005c 0.2771,-0.0000 0.5081,0.1694 0.5081 0.5389c 0.0000,0.4157 -0.2617,1.0316 -0.2925 1.4935c 0.7082,-0.3079 0.9546,-0.8006 1.4627 -0.8006c 0.4157,-0.0000 0.5235,0.3079 0.5235 0.4619c 0.0000,0.4619 -0.5389,0.5697 -1.0624 0.5697c -0.2925,-0.0000 -0.5697,0.0154 -0.8468 0.0616c 0.5235,0.5697 1.2779,0.7236 1.2779 1.3395c 0.0000,0.2771 -0.2309,0.4465 -0.4465 0.4465c -0.6005,-0.0000 -0.7082,-1.0008 -1.0931 -1.6012c -0.3849,0.6928 -0.4927,1.6012 -1.0777 1.6012c -0.2617,-0.0000 -0.4465,-0.2002 -0.4465 -0.4311c 0.0000,-0.6620 0.7852,-0.7852 1.2933 -1.3549Z" fill-opacity="1.0" stroke-width="0.0"/><path class="elabel" d="M 183.3132,289.3201 ZM 187.7473,287.4417 c 0.0000,1.2779 0.2617,1.3549 1.3395 1.4011c 0.0924,0.0924 0.0924,0.4157 0.0000 0.5081c -0.7698,-0.0154 -1.1455,-0.0308 -1.8784 -0.0308c -0.8345,-0.0000 -1.3857,0.0154 -2.1401 0.0308c -0.0924,-0.0924 -0.0924,-0.4157 0.0000 -0.5081c 1.0777,-0.0462 1.4935,-0.1232 1.4935 -1.4011v -5.0192 c 0.0000,-0.5235 -0.0539,-0.8930 -0.3079 -0.8930c -0.2925,-0.0000 -0.6390,0.0924 -1.3395 0.3849c -0.1386,-0.0939 -0.2063,-0.2402 -0.2309 -0.4157c 1.3549,-0.6313 2.1663,-1.0115 3.0177 -1.5396c 0.0539,-0.0000 0.0924,0.0031 0.0924 0.0770c -0.0262,0.2002 -0.0462,1.1393 -0.0462 2.0631v 5.3426 Z" fill-opacity="1.0" stroke-width="0.0"/><path class="elabel" d="M 192.0883,168.2073 ZM 197.0921,162.0795 c -0.0924,-0.0924 -0.0924,-0.4157 0.0000 -0.5081c 0.3849,0.0154 0.9084,0.0308 1.4165 0.0308c 0.4003,-0.0000 0.7698,-0.0154 1.0777 -0.0308c 0.0924,0.0924 0.0924,0.4157 0.0000 0.5081c -0.8622,0.0770 -1.0300,0.4634 -1.3179 1.1393l -2.0539,4.8191 c -0.1093,0.2556 -0.2155,0.3541 -0.3695 0.3541c -0.2002,-0.0000 -0.2925,-0.0924 -0.3849 -0.3233l -1.9646,-4.8653 c -0.3141,-0.7791 -0.4219,-1.0269 -1.2379 -1.1239c -0.0924,-0.0924 -0.0924,-0.4157 0.0000 -0.5081c 0.4619,0.0154 0.9238,0.0308 1.4319 0.0308c 0.5081,-0.0000 1.0470,-0.0154 1.5550 -0.0308c 0.0924,0.0924 0.0924,0.4157 0.0000 0.5081c -0.8206,0.1078 -0.7544,0.2925 -0.4788 1.0316l 1.1101,2.9715 c 0.2402,0.6436 0.3202,0.6543 0.5697 0.0462l 1.2425,-3.0177 c 0.3218,-0.7821 0.2356,-0.9700 -0.5958 -1.0316Z" fill-opacity="1.0" stroke-width="0.0"/></g><g fill="rgb(0,0,0)" fill-opacity="0.0" stroke="rgb(0,0,0)" stroke-linecap="butt" stroke-linejoin="miter" stroke-miterlimit="10.0" stroke-opacity="1.0" stroke-width="0.6644518272425249"><path class="edge" d="M 173.8932,358.0960 c -6.6527,-10.7871 -15.8121,-27.7815 -19.1002 -44.0898c -4.8807,-24.2109 -1.8479,-52.4176 1.6590 -72.1784" fill="none" fill-opacity="0.0"/><path class="edge" d="M 174.1760,357.9216 l -0.5655,0.3488 l 8.4576,13.7138 l 0.5655,-0.3488 Z" fill-opacity="1.0" stroke-width="0.0"/><path class="edge" d="M 156.7573,241.8819 l 0.1161,-0.6542 l 5.5596,-6.6109 l -3.1719,-8.7448 l -5.9873,7.1194 l 2.9454,8.1202 l -0.1161,0.6542 l 0.3271,0.0581 l 0.2322,-1.3085 l -2.6487,-7.3023 l 4.9996,-5.9450 l 2.6487,7.3023 l -4.9996,5.9450 l -0.2322,1.3085 l 0.3271,0.0581 Z" fill-opacity="1.0" stroke-width="0.0"/><path class="elabel" d="M 125.5979,243.2481 ZM 130.0321,241.3697 c 0.0000,1.2779 0.2617,1.3549 1.3395 1.4011c 0.0924,0.0924 0.0924,0.4157 0.0000 0.5081c -0.7698,-0.0154 -1.1455,-0.0308 -1.8784 -0.0308c -0.8345,-0.0000 -1.3857,0.0154 -2.1401 0.0308c -0.0924,-0.0924 -0.0924,-0.4157 0.0000 -0.5081c 1.0777,-0.0462 1.4935,-0.1232 1.4935 -1.4011v -5.0192 c 0.0000,-0.5235 -0.0539,-0.8930 -0.3079 -0.8930c -0.2925,-0.0000 -0.6390,0.0924 -1.3395 0.3849c -0.1386,-0.0939 -0.2063,-0.2402 -0.2309 -0.4157c 1.3549,-0.6313 2.1663,-1.0115 3.0177 -1.5396c 0.0539,-0.0000 0.0924,0.0031 0.0924 0.0770c -0.0262,0.2002 -0.0462,1.1393 -0.0462 2.0631v 5.3426 ZM 132.7572,243.2481 ZM 133.6348,242.5861 c 0.0000,-0.4465 0.3695,-0.8160 0.8160 -0.8160c 0.4465,-0.0000 0.8160,0.3695 0.8160 0.8160c 0.0000,0.4465 -0.3695,0.8160 -0.8160 0.8160c -0.4465,-0.0000 -0.8160,-0.3695 -0.8160 -0.8160ZM 136.1444,243.2481 ZM 137.0220,242.5861 c 0.0000,-0.4465 0.3695,-0.8160 0.8160 -0.8160c 0.4465,-0.0000 0.8160,0.3695 0.8160 0.8160c 0.0000,0.4465 -0.3695,0.8160 -0.8160 0.8160c -0.4465,-0.0000 -0.8160,-0.3695 -0.8160 -0.8160ZM 139.5316,243.2481 ZM 140.4708,236.0426 c 0.0000,-0.9238 1.0624,-2.1863 2.7714 -2.1863c 1.2471,-0.0000 2.6020,0.6774 2.6020 2.3403c 0.0000,1.1701 -0.6620,1.8476 -1.5396 2.6944l -1.5550,1.4935 c -0.0770,0.0770 -1.1393,1.1239 -1.1393 1.8630h 2.7406 c 0.5543,-0.0000 0.8160,-0.3849 1.0777 -1.4781c 0.1540,-0.0308 0.3541,-0.0000 0.4465 0.0770c -0.0154,0.4619 -0.1694,1.6166 -0.3695 2.4326c 0.0000,-0.0000 -0.7082,-0.0308 -1.2009 -0.0308h -2.6944 c -0.4927,-0.0000 -1.2779,0.0308 -1.2779 0.0308c 0.0000,-0.9084 0.2463,-1.6474 1.7552 -3.1871l 1.1393,-1.1239 c 0.9084,-0.9238 1.2625,-1.7244 1.2625 -2.7098c 0.0000,-1.4781 -0.7852,-1.8630 -1.3395 -1.8630c -1.1239,-0.0000 -1.5242,0.5543 -1.5242 0.9392c 0.0000,0.1232 0.0924,0.2617 0.1232 0.3695c 0.0308,0.1078 0.0616,0.2002 0.0616 0.3233c 0.0000,0.3403 -0.4619,0.6159 -0.7236 0.6159c -0.3233,-0.0000 -0.6159,-0.2771 -0.6159 -0.6005Z" fill-opacity="1.0" stroke-width="0.0"/><path class="elabel" d="M 156.7609,379.7993 ZM 160.3328,370.9464 c -0.6928,-0.0000 -1.6320,0.7082 -1.6320 4.4958c 0.0000,1.3395 0.1540,3.9723 1.5858 3.9723c 0.2771,-0.0000 1.0316,-0.1386 1.3703 -1.4011c 0.2155,-0.7852 0.2617,-1.7552 0.2617 -3.1717c 0.0000,-2.0631 -0.4157,-3.2332 -0.8930 -3.6336c -0.1848,-0.1694 -0.4311,-0.2617 -0.6928 -0.2617ZM 160.3328,370.9464 ZM 160.2712,379.9533 c -0.5958,-0.0000 -1.1239,-0.2094 -1.5612 -0.6466c -0.8422,-0.8391 -1.3487,-2.3926 -1.3487 -4.0339c 0.0000,-3.0485 1.4473,-4.8653 2.9715 -4.8653c 0.8314,-0.0000 1.4750,0.4665 1.8784 1.0008c 0.6774,0.8930 1.0470,2.2017 1.0470 3.7259c 0.0000,3.6182 -1.8014,4.8191 -2.9869 4.8191ZM 163.9202,379.7993 ZM 164.7978,379.1373 c 0.0000,-0.4465 0.3695,-0.8160 0.8160 -0.8160c 0.4465,-0.0000 0.8160,0.3695 0.8160 0.8160c 0.0000,0.4465 -0.3695,0.8160 -0.8160 0.8160c -0.4465,-0.0000 -0.8160,-0.3695 -0.8160 -0.8160ZM 167.3074,379.7993 ZM 168.1850,379.1373 c 0.0000,-0.4465 0.3695,-0.8160 0.8160 -0.8160c 0.4465,-0.0000 0.8160,0.3695 0.8160 0.8160c 0.0000,0.4465 -0.3695,0.8160 -0.8160 0.8160c -0.4465,-0.0000 -0.8160,-0.3695 -0.8160 -0.8160ZM 170.6946,379.7993 ZM 175.1288,377.9209 c 0.0000,1.2779 0.2617,1.3549 1.3395 1.4011c 0.0924,0.0924 0.0924,0.4157 0.0000 0.5081c -0.7698,-0.0154 -1.1455,-0.0308 -1.8784 -0.0308c -0.8345,-0.0000 -1.3857,0.0154 -2.1401 0.0308c -0.0924,-0.0924 -0.0924,-0.4157 0.0000 -0.5081c 1.0777,-0.0462 1.4935,-0.1232 1.4935 -1.4011v -5.0192 c 0.0000,-0.5235 -0.0539,-0.8930 -0.3079 -0.8930c -0.2925,-0.0000 -0.6390,0.0924 -1.3395 0.3849c -0.1386,-0.0939 -0.2063,-0.2402 -0.2309 -0.4157c 1.3549,-0.6313 2.1663,-1.0115 3.0177 -1.5396c 0.0539,-0.0000 0.0924,0.0031 0.0924 0.0770c -0.0262,0.2002 -0.0462,1.1393 -0.0462 2.0631v 5.3426 Z" fill-opacity="1.0" stroke-width="0.0"/><path class="elabel" d="M 152.2121,340.3104 ZM 155.0142,334.7985 l 0.9392,1.3857 c 0.1170,0.1724 0.1817,0.1848 0.2925 0.0308l 1.0008,-1.4011 c 0.3726,-0.5219 0.1955,-0.5697 -0.3695 -0.6313c -0.0924,-0.0924 -0.0924,-0.4157 0.0000 -0.5081c 0.4003,0.0154 0.8314,0.0308 1.2933 0.0308c 0.4619,-0.0000 0.8160,-0.0154 1.1239 -0.0308c 0.0924,0.0924 0.0924,0.4157 0.0000 0.5081c -0.5620,0.0462 -0.9238,0.1232 -1.4935 0.8468l -1.2933,1.6474 c -0.0724,0.0924 -0.0647,0.1401 0.0000 0.2309l 1.3857,1.9553 c 0.6205,0.8761 0.8422,0.9238 1.5396 0.9700c 0.0924,0.0924 0.0924,0.4157 0.0000 0.5081c -0.3695,-0.0154 -0.7852,-0.0308 -1.3703 -0.0308c -0.5543,-0.0000 -1.0624,0.0154 -1.5242 0.0308c -0.0924,-0.0924 -0.0924,-0.4157 0.0000 -0.5081c 0.4881,-0.0508 0.7359,-0.0785 0.2002 -0.8160l -0.8930,-1.2317 c -0.0970,-0.1324 -0.1493,-0.1524 -0.2771 0.0308l -0.9700,1.4011 c -0.3464,0.5004 -0.2155,0.5589 0.3387 0.6159c 0.0924,0.0924 0.0924,0.4157 0.0000 0.5081c -0.4003,-0.0154 -0.8314,-0.0308 -1.2933 -0.0308c -0.4619,-0.0000 -0.8006,0.0154 -1.1085 0.0308c -0.0924,-0.0924 -0.0924,-0.4157 0.0000 -0.5081c 0.5389,-0.0308 0.8838,-0.0785 1.4935 -0.8622l 1.2933,-1.6628 c 0.0554,-0.0708 0.0600,-0.1201 -0.0154 -0.2309l -1.3395,-1.9553 c -0.4311,-0.6313 -0.8622,-0.8930 -1.3857 -0.9392c -0.0924,-0.0924 -0.0924,-0.4157 0.0000 -0.5081c 0.4003,0.0154 0.8622,0.0308 1.3241 0.0308c 0.4619,-0.0000 1.1393,-0.0154 1.5550 -0.0308c 0.0924,0.0924 0.0924,0.4157 0.0000 0.5081c -0.6882,0.0724 -0.7991,0.0955 -0.4465 0.6159Z" fill-opacity="1.0" stroke-width="0.0"/></g><g fill="rgb(0,0,0)" fill-opacity="0.0" stroke="rgb(0,0,0)" stroke-linecap="butt" stroke-linejoin="miter" stroke-miterlimit="10.0" stroke-opacity="1.0" stroke-width="0.6644518272425249"><path class="edge" d="M 179.6322,279.9866 c -1.8317,-4.7426 -4.0515,-10.8129 -5.6877 -16.3306c -2.0999,-7.0819 -4.0059,-14.9696 -5.5432 -21.9232" fill="none" fill-opacity="0.0"/><path class="edge" d="M 179.9421,279.8669 l -0.6198,0.2394 l 5.8049,15.0301 l 0.6198,-0.2394 Z" fill-opacity="1.0" stroke-width="0.0"/><path class="edge" d="M 168.7256,241.6610 l -0.6488,0.1434 l -0.1434,-0.6488 l -5.8320,-6.3719 l 2.8024,-8.8702 l 6.2806,6.8620 l -2.6022,8.2366 l 0.1434,0.6488 l -0.6488,0.1434 Z" fill-opacity="1.0" stroke-width="0.0"/><path class="elabel" d="M 138.2058,242.7207 ZM 141.7778,233.8678 c -0.6928,-0.0000 -1.6320,0.7082 -1.6320 4.4958c 0.0000,1.3395 0.1540,3.9723 1.5858 3.9723c 0.2771,-0.0000 1.0316,-0.1386 1.3703 -1.4011c 0.2155,-0.7852 0.2617,-1.7552 0.2617 -3.1717c 0.0000,-2.0631 -0.4157,-3.2332 -0.8930 -3.6336c -0.1848,-0.1694 -0.4311,-0.2617 -0.6928 -0.2617ZM 141.7778,233.8678 ZM 141.7162,242.8747 c -0.5958,-0.0000 -1.1239,-0.2094 -1.5612 -0.6466c -0.8422,-0.8391 -1.3487,-2.3926 -1.3487 -4.0339c 0.0000,-3.0485 1.4473,-4.8653 2.9715 -4.8653c 0.8314,-0.0000 1.4750,0.4665 1.8784 1.0008c 0.6774,0.8930 1.0470,2.2017 1.0470 3.7259c 0.0000,3.6182 -1.8014,4.8191 -2.9869 4.8191ZM 145.3651,242.7207 ZM 146.2427,242.0587 c 0.0000,-0.4465 0.3695,-0.8160 0.8160 -0.8160c 0.4465,-0.0000 0.8160,0.3695 0.8160 0.8160c 0.0000,0.4465 -0.3695,0.8160 -0.8160 0.8160c -0.4465,-0.0000 -0.8160,-0.3695 -0.8160 -0.8160ZM 148.7523,242.7207 ZM 149.6299,242.0587 c 0.0000,-0.4465 0.3695,-0.8160 0.8160 -0.8160c 0.4465,-0.0000 0.8160,0.3695 0.8160 0.8160c 0.0000,0.4465 -0.3695,0.8160 -0.8160 0.8160c -0.4465,-0.0000 -0.8160,-0.3695 -0.8160 -0.8160ZM 152.1395,242.7207 ZM 156.5737,240.8424 c 0.0000,1.2779 0.2617,1.3549 1.3395 1.4011c 0.0924,0.0924 0.0924,0.4157 0.0000 0.5081c -0.7698,-0.0154 -1.1455,-0.0308 -1.8784 -0.0308c -0.8345,-0.0000 -1.3857,0.0154 -2.1401 0.0308c -0.0924,-0.0924 -0.0924,-0.4157 0.0000 -0.5081c 1.0777,-0.0462 1.4935,-0.1232 1.4935 -1.4011v -5.0192 c 0.0000,-0.5235 -0.0539,-0.8930 -0.3079 -0.8930c -0.2925,-0.0000 -0.6390,0.0924 -1.3395 0.3849c -0.1386,-0.0939 -0.2063,-0.2402 -0.2309 -0.4157c 1.3549,-0.6313 2.1663,-1.0115 3.0177 -1.5396c 0.0539,-0.0000 0.0924,0.0031 0.0924 0.0770c -0.0262,0.2002 -0.0462,1.1393 -0.0462 2.0631v 5.3426 Z" fill-opacity="1.0" stroke-width="0.0"/><path class="elabel" d="M 168.5220,282.1965 ZM 171.6629,284.6599 c -0.5543,0.9854 -1.1701,1.1085 -1.4935 1.1085c -0.4157,-0.0000 -0.7236,-0.2463 -0.7236 -0.5697c 0.0000,-0.2002 0.2309,-0.6620 0.6774 -0.6620c 0.1694,-0.0000 0.2309,0.0462 0.4465 0.0462c 0.3849,-0.0000 0.6005,-0.1386 0.7698 -0.4465c 0.2309,-0.4773 0.4172,-0.9022 0.6005 -1.4165c 0.1540,-0.4311 -0.0816,-1.1378 -0.2155 -1.4473l -1.7413,-4.0493 c -0.4034,-0.9392 -0.6035,-1.0777 -1.2148 -1.1547c -0.0924,-0.0924 -0.0924,-0.4157 0.0000 -0.5081c 0.3079,0.0154 0.7236,0.0308 1.2471 0.0308c 0.5543,-0.0000 1.1701,-0.0154 1.7398 -0.0308c 0.0924,0.0924 0.0924,0.4157 0.0000 0.5081c -0.8622,0.0662 -0.7821,0.3510 -0.5050 1.0008l 1.3657,3.2025 c 0.1309,0.3048 0.2602,0.2633 0.3680 0.0154l 1.5273,-3.5258 c 0.2463,-0.5543 -0.2525,-0.6466 -0.7390 -0.6928c -0.0924,-0.0924 -0.0924,-0.4157 0.0000 -0.5081c 0.4619,0.0154 0.9392,0.0308 1.4011 0.0308c 0.4311,-0.0000 0.7852,-0.0154 1.0931 -0.0308c 0.0924,0.0924 0.0924,0.4157 0.0000 0.5081c -0.7236,0.0878 -0.9438,0.3341 -1.2471 0.9854c -0.8037,1.7306 -1.4935,3.3102 -2.7252 6.2817c -0.1894,0.4557 -0.3911,0.8961 -0.6313 1.3241Z" fill-opacity="1.0" stroke-width="0.0"/></g><g fill="rgb(0,0,0)" fill-opacity="0.0" stroke="rgb(0,0,0)" stroke-linecap="butt" stroke-linejoin="miter" stroke-miterlimit="10.0" stroke-opacity="1.0" stroke-width="0.6644518272425249"><path class="edge" d="M 169.2875,82.7108 c 2.2593,-9.0079 6.4487,-23.0735 12.7250 -34.0332c 1.9430,-3.3948 4.3753,-6.7560 6.9015 -9.8696" fill="none" fill-opacity="0.0"/><path class="edge" d="M 169.6097,82.7917 l -0.6445,-0.1616 l -3.9198,15.6280 l 0.6445,0.1616 Z" fill-opacity="1.0" stroke-width="0.0"/><path class="edge" d="M 189.1719,39.0173 l -0.5160,-0.4186 l 0.4186,-0.5160 l 1.3592,-8.5303 l 8.6876,-3.3255 l -1.4638,9.1864 l -8.0670,3.0880 l -0.4186,0.5160 l -0.5160,-0.4186 Z" fill-opacity="1.0" stroke-width="0.0"/><path class="elabel" d="M 169.1436,23.8968 ZM 172.7156,15.0439 c -0.6928,-0.0000 -1.6320,0.7082 -1.6320 4.4958c 0.0000,1.3395 0.1540,3.9723 1.5858 3.9723c 0.2771,-0.0000 1.0316,-0.1386 1.3703 -1.4011c 0.2155,-0.7852 0.2617,-1.7552 0.2617 -3.1717c 0.0000,-2.0631 -0.4157,-3.2332 -0.8930 -3.6336c -0.1848,-0.1694 -0.4311,-0.2617 -0.6928 -0.2617ZM 172.7156,15.0439 ZM 172.6540,24.0508 c -0.5958,-0.0000 -1.1239,-0.2094 -1.5612 -0.6466c -0.8422,-0.8391 -1.3487,-2.3926 -1.3487 -4.0339c 0.0000,-3.0485 1.4473,-4.8653 2.9715 -4.8653c 0.8314,-0.0000 1.4750,0.4665 1.8784 1.0008c 0.6774,0.8930 1.0470,2.2017 1.0470 3.7259c 0.0000,3.6182 -1.8014,4.8191 -2.9869 4.8191ZM 176.3029,23.8968 ZM 177.1805,23.2348 c 0.0000,-0.4465 0.3695,-0.8160 0.8160 -0.8160c 0.4465,-0.0000 0.8160,0.3695 0.8160 0.8160c 0.0000,0.4465 -0.3695,0.8160 -0.8160 0.8160c -0.4465,-0.0000 -0.8160,-0.3695 -0.8160 -0.8160ZM 179.6901,23.8968 ZM 180.5677,23.2348 c 0.0000,-0.4465 0.3695,-0.8160 0.8160 -0.8160c 0.4465,-0.0000 0.8160,0.3695 0.8160 0.8160c 0.0000,0.4465 -0.3695,0.8160 -0.8160 0.8160c -0.4465,-0.0000 -0.8160,-0.3695 -0.8160 -0.8160ZM 183.0773,23.8968 ZM 187.5115,22.0184 c 0.0000,1.2779 0.2617,1.3549 1.3395 1.4011c 0.0924,0.0924 0.0924,0.4157 0.0000 0.5081c -0.7698,-0.0154 -1.1455,-0.0308 -1.8784 -0.0308c -0.8345,-0.0000 -1.3857,0.0154 -2.1401 0.0308c -0.0924,-0.0924 -0.0924,-0.4157 0.0000 -0.5081c 1.0777,-0.0462 1.4935,-0.1232 1.4935 -1.4011v -5.0192 c 0.0000,-0.5235 -0.0539,-0.8930 -0.3079 -0.8930c -0.2925,-0.0000 -0.6390,0.0924 -1.3395 0.3849c -0.1386,-0.0939 -0.2063,-0.2402 -0.2309 -0.4157c 1.3549,-0.6313 2.1663,-1.0115 3.0177 -1.5396c 0.0539,-0.0000 0.0924,0.0031 0.0924 0.0770c -0.0262,0.2002 -0.0462,1.1393 -0.0462 2.0631v 5.3426 Z" fill-opacity="1.0" stroke-width="0.0"/><path class="elabel" d="M 144.8185,95.3612 ZM 149.2527,93.4829 c 0.0000,1.2779 0.2617,1.3549 1.3395 1.4011c 0.0924,0.0924 0.0924,0.4157 0.0000 0.5081c -0.7698,-0.0154 -1.1455,-0.0308 -1.8784 -0.0308c -0.8345,-0.0000 -1.3857,0.0154 -2.1401 0.0308c -0.0924,-0.0924 -0.0924,-0.4157 0.0000 -0.5081c 1.0777,-0.0462 1.4935,-0.1232 1.4935 -1.4011v -5.0192 c 0.0000,-0.5235 -0.0539,-0.8930 -0.3079 -0.8930c -0.2925,-0.0000 -0.6390,0.0924 -1.3395 0.3849c -0.1386,-0.0939 -0.2063,-0.2402 -0.2309 -0.4157c 1.3549,-0.6313 2.1663,-1.0115 3.0177 -1.5396c 0.0539,-0.0000 0.0924,0.0031 0.0924 0.0770c -0.0262,0.2002 -0.0462,1.1393 -0.0462 2.0631v 5.3426 ZM 151.9778,95.3612 ZM 152.8554,94.6992 c 0.0000,-0.4465 0.3695,-0.8160 0.8160 -0.8160c 0.4465,-0.0000 0.8160,0.3695 0.8160 0.8160c 0.0000,0.4465 -0.3695,0.8160 -0.8160 0.8160c -0.4465,-0.0000 -0.8160,-0.3695 -0.8160 -0.8160ZM 155.3650,95.3612 ZM 156.2426,94.6992 c 0.0000,-0.4465 0.3695,-0.8160 0.8160 -0.8160c 0.4465,-0.0000 0.8160,0.3695 0.8160 0.8160c 0.0000,0.4465 -0.3695,0.8160 -0.8160 0.8160c -0.4465,-0.0000 -0.8160,-0.3695 -0.8160 -0.8160ZM 158.7523,95.3612 ZM 161.3389,86.9394 c -0.2002,-0.0462 -0.4157,-0.0616 -0.6466 -0.0616c -0.7544,-0.0000 -1.2471,-0.1078 -1.2471 -0.5697c 0.0000,-0.2155 0.1386,-0.4619 0.5081 -0.4619c 0.5235,-0.0000 0.8006,0.5081 1.4781 0.7852c -0.0616,-0.6005 -0.3541,-1.0162 -0.3541 -1.4165c 0.0000,-0.3233 0.1848,-0.6005 0.4619 -0.6005c 0.2771,-0.0000 0.5081,0.1694 0.5081 0.5389c 0.0000,0.4157 -0.2617,1.0316 -0.2925 1.4935c 0.7082,-0.3079 0.9546,-0.8006 1.4627 -0.8006c 0.4157,-0.0000 0.5235,0.3079 0.5235 0.4619c 0.0000,0.4619 -0.5389,0.5697 -1.0624 0.5697c -0.2925,-0.0000 -0.5697,0.0154 -0.8468 0.0616c 0.5235,0.5697 1.2779,0.7236 1.2779 1.3395c 0.0000,0.2771 -0.2309,0.4465 -0.4465 0.4465c -0.6005,-0.0000 -0.7082,-1.0008 -1.0931 -1.6012c -0.3849,0.6928 -0.4927,1.6012 -1.0777 1.6012c -0.2617,-0.0000 -0.4465,-0.2002 -0.4465 -0.4311c 0.0000,-0.6620 0.7852,-0.7852 1.2933 -1.3549Z" fill-opacity="1.0" stroke-width="0.0"/><path class="elabel" d="M 172.6107,55.4310 ZM 173.3497,53.3063 c 0.0924,-0.0924 0.3849,-0.1078 0.4773 -0.0154c 0.0924,0.3849 0.2617,1.0624 0.6005 1.4165c 0.1586,0.1647 0.4927,0.3695 1.0931 0.3695c 0.5697,-0.0000 1.3087,-0.3233 1.3087 -1.0777c 0.0000,-0.6620 -0.2925,-0.9854 -1.5704 -1.5088c -1.1855,-0.4927 -1.6936,-0.9700 -1.6936 -2.0939c 0.0000,-0.9854 1.0316,-1.7244 2.1709 -1.7244c 0.8006,-0.0000 1.5396,0.2155 2.0169 0.2925c -0.0154,0.5081 -0.0462,1.0777 -0.0924 1.6320c -0.0924,0.0924 -0.4003,0.1078 -0.4927 0.0154c -0.2002,-1.3087 -1.0931,-1.4319 -1.4319 -1.4319c -0.5235,-0.0000 -1.0777,0.3541 -1.0777 0.9854c 0.0000,0.8468 0.6128,1.0854 1.5396 1.4288c 1.0470,0.3880 1.8014,0.9992 1.8014 2.0508c 0.0000,1.5242 -1.5858,1.9399 -2.4480 1.9399c -0.5697,-0.0000 -0.9854,-0.0616 -1.4011 -0.1694c -0.1078,-0.0308 -0.2002,-0.0308 -0.3079 -0.0308c -0.0770,-0.0000 -0.2309,0.0154 -0.3849 0.0462c 0.0000,-0.6466 -0.0462,-1.3703 -0.1078 -2.1247Z" fill-opacity="1.0" stroke-width="0.0"/></g></svg>