<?xml version="1.0" encoding="UTF-8"?><svg font-size="1" height="400.0000" stroke="rgb(0,0,0)" stroke-opacity="1" version="1.1" viewBox="0.0 0.0 400.0 400.0" width="400.0000" xmlns="http://www.w3.org/2000/svg" xmlns:xlink="http://www.w3.org/1999/xlink"><g fill="rgb(0,0,0)" fill-opacity="1.0" stroke="rgb(0,0,0)" stroke-linecap="butt" stroke-linejoin="miter" stroke-miterlimit="10.0" stroke-opacity="1.0" stroke-width="0.0"><path class="node" d="M 186.1114,157.3770 l -0.0000,-36.0656 h -20.4152 l -0.0000,36.0656 Z" fill-opacity="1.0"/><path class="bgnode" d="M 184.4721,155.7377 l -0.0000,-32.7869 h -17.1365 l -0.0000,32.7869 Z" fill="rgb(255,255,255)" fill-opacity="1.0"/><path class="nlabel" d="M 170.6142,147.5968 ZM 175.9513,140.7403 c 1.6144,-0.0000 1.6714,-0.2469 1.7284 -1.2915c 0.1140,-0.1140 0.5128,-0.1140 0.6268 -0.0000c -0.0190,0.4558 -0.0380,1.1016 -0.0380 1.6334c 0.0000,0.6515 0.0190,1.1776 0.0380 1.6714c -0.1140,0.1140 -0.5128,0.1140 -0.6268 -0.0000c -0.0570,-0.8547 -0.1140,-1.2915 -1.7284 -1.2915h -1.7284 v 4.1975 c 0.0000,0.8927 0.2659,1.1966 1.0636 1.1966h 2.2032 c 1.4435,-0.0000 2.1082,-1.1206 2.4881 -2.4881c 0.2488,-0.0608 0.4672,-0.0171 0.6648 0.0950c -0.1519,0.9686 -0.4368,2.2222 -0.7027 3.1719c 0.0000,-0.0000 -1.5195,-0.0380 -2.4311 -0.0380h -4.0835 c -0.6268,-0.0000 -1.7664,0.0190 -2.4691 0.0380c -0.1140,-0.1140 -0.1140,-0.5128 0.0000 -0.6268c 1.3295,-0.0570 1.6524,-0.1519 1.6524 -1.7284v -7.6162 c 0.0000,-1.5764 -0.3229,-1.6714 -1.6524 -1.7284c -0.1140,-0.1140 -0.1140,-0.5128 0.0000 -0.6268c 0.7597,0.0190 1.8708,0.0380 2.4501 0.0380h 4.8432 c 0.4558,-0.0000 0.6078,-0.0190 0.9307 -0.0760c 0.0570,-0.0000 0.0760,0.0190 0.0760 0.0570c 0.0380,0.1519 0.3229,1.9753 0.4178 2.7540c -0.1861,0.0893 -0.3913,0.1292 -0.6268 0.0950c -0.4178,-1.3105 -0.7217,-2.0703 -2.1462 -2.0703h -1.4245 c -1.0256,-0.0000 -1.2535,0.3799 -1.2535 1.2156v 3.4188 h 1.7284 Z" fill-opacity="1.0"/></g><g fill="rgb(0,0,0)" fill-opacity="1.0" stroke="rgb(0,0,0)" stroke-linecap="butt" stroke-linejoin="miter" stroke-miterlimit="10.0" stroke-opacity="1.0" stroke-width="0.0"><path class="node" d="M 239.9380,36.0656 l -0.0000,-36.0656 h -23.1502 l -0.0000,36.0656 Z" fill-opacity="1.0"/><path class="bgnode" d="M 238.2986,34.4262 l -0.0000,-32.7869 h -19.8716 l -0.0000,32.7869 Z" fill="rgb(255,255,255)" fill-opacity="1.0"/><path class="nlabel" d="M 221.7058,26.2853 ZM 225.3334,24.6899 c 0.0000,0.6078 0.2089,0.9876 2.0703 0.9876c 2.6780,-0.0000 4.9762,-0.9497 4.9762 -4.7863c 0.0000,-2.9249 -1.3485,-6.2487 -5.4510 -6.2487c -0.9307,-0.0000 -1.5954,0.2659 -1.5954 0.9307v 9.1167 ZM 225.3334,24.6899 ZM 224.5167,14.0347 c 0.7407,-0.0000 1.7854,-0.0380 3.1339 -0.0380c 3.6467,-0.0000 6.5526,2.9059 6.5526 6.4387c 0.0000,4.6723 -3.5327,5.8879 -6.2108 5.8879c -1.9563,-0.0000 -2.7540,-0.0380 -3.4567 -0.0380c -0.7160,-0.0000 -1.7284,0.0190 -2.4691 0.0380c -0.1140,-0.1140 -0.1140,-0.5128 0.0000 -0.6268c 1.3295,-0.0570 1.6524,-0.1519 1.6524 -1.7284v -7.6162 c 0.0000,-1.5764 -0.3229,-1.6714 -1.6524 -1.7284c -0.1140,-0.1140 -0.1140,-0.5128 0.0000 -0.6268c 0.7597,0.0190 1.7721,0.0380 2.4501 0.0380Z" fill-opacity="1.0"/></g><g fill="rgb(0,0,0)" fill-opacity="1.0" stroke="rgb(0,0,0)" stroke-linecap="butt" stroke-linejoin="miter" stroke-miterlimit="10.0" stroke-opacity="1.0" stroke-width="0.0"><path class="node" d="M 178.7599,400.0000 l -0.0000,-36.0656 h -22.1056 l -0.0000,36.0656 Z" fill-opacity="1.0"/><path class="bgnode" d="M 177.1206,398.3607 l -0.0000,-32.7869 h -18.8269 l -0.0000,32.7869 Z" fill="rgb(255,255,255)" fill-opacity="1.0"/><path class="nlabel" d="M 161.5723,390.2197 ZM 168.3529,390.4097 c -4.0835,-0.0000 -6.0778,-2.7768 -6.0778 -6.0778c 0.0000,-1.9810 0.7521,-3.8404 2.0133 -4.9952c 1.1206,-1.0256 2.4691,-1.6144 4.0835 -1.6144c 2.3362,-0.0000 3.1908,0.7597 4.1595 0.8547c 0.1899,1.0446 0.3229,1.9563 0.4178 2.9439c -0.2146,0.1140 -0.3989,0.1709 -0.6268 0.0950c -0.4938,-1.6334 -1.5384,-3.1908 -4.1595 -3.1908c -0.9876,-0.0000 -2.0892,0.5318 -3.0313 1.6904c -0.6932,0.8528 -1.1282,2.2165 -1.1282 3.8556c 0.0000,2.7730 1.7740,5.6600 4.3304 5.6600c 1.7664,-0.0000 3.0579,-0.5888 4.4064 -2.0703c 0.2089,-0.0000 0.3419,0.1140 0.4368 0.2849c -1.2915,1.6904 -2.9819,2.5641 -4.8243 2.5641Z" fill-opacity="1.0"/></g><g fill="rgb(0,0,0)" fill-opacity="1.0" stroke="rgb(0,0,0)" stroke-linecap="butt" stroke-linejoin="miter" stroke-miterlimit="10.0" stroke-opacity="1.0" stroke-width="0.0"><path class="node" d="M 186.4058,36.0656 l -0.0000,-36.0656 h -21.0040 l -0.0000,36.0656 Z" fill-opacity="1.0"/><path class="bgnode" d="M 184.7665,34.4262 l -0.0000,-32.7869 h -17.7253 l -0.0000,32.7869 Z" fill="rgb(255,255,255)" fill-opacity="1.0"/><path class="nlabel" d="M 170.3198,26.2853 ZM 173.9475,15.8391 v 3.4947 h 1.4055 c 1.5764,-0.0000 2.6970,-0.5698 2.6970 -2.1842c 0.0000,-1.9373 -1.3865,-2.5071 -2.4501 -2.5071c -1.6524,-0.0000 -1.6524,0.1899 -1.6524 1.1966ZM 173.9475,15.8391 ZM 173.9475,19.9796 v 4.0645 c 0.0000,1.1586 0.2469,1.6524 1.5764 1.6524c 2.8870,-0.0000 3.4188,-1.1586 3.4188 -2.5451c 0.0000,-1.7094 -1.0826,-3.1719 -3.6847 -3.1719h -1.3105 ZM 173.9475,19.9796 ZM 173.1308,14.0347 c 0.6838,-0.0000 1.7094,-0.0380 2.3741 -0.0380c 3.5327,-0.0000 4.0835,1.6524 4.0835 2.9249c 0.0000,1.0313 -0.8528,2.0057 -1.8043 2.4881v 0.0380 c 1.6524,0.4748 2.9249,1.5195 2.9249 3.3428c 0.0000,1.6334 -1.0066,3.5327 -4.7863 3.5327c -1.5954,-0.0000 -2.0949,-0.0380 -2.7730 -0.0380c -0.7046,-0.0000 -1.7284,0.0190 -2.4691 0.0380c -0.1140,-0.1140 -0.1140,-0.5128 0.0000 -0.6268c 1.3295,-0.0570 1.6524,-0.1519 1.6524 -1.7284v -7.6162 c 0.0000,-1.5764 -0.3229,-1.6714 -1.6524 -1.7284c -0.1140,-0.1140 -0.1140,-0.5128 0.0000 -0.6268c 0.7407,0.0190 1.7721,0.0380 2.4501 0.0380Z" fill-opacity="1.0"/></g><g fill="rgb(0,0,0)" fill-opacity="1.0" stroke="rgb(0,0,0)" stroke-linecap="butt" stroke-linejoin="miter" stroke-miterlimit="10.0" stroke-opacity="1.0" stroke-width="0.0"><path class="node" d="M 233.3236,278.6885 l -0.0000,-36.0656 h -23.0363 l -0.0000,36.0656 Z" fill-opacity="1.0"/><path class="bgnode" d="M 231.6843,277.0492 l -0.0000,-32.7869 h -19.7576 l -0.0000,32.7869 Z" fill="rgb(255,255,255)" fill-opacity="1.0"/><path class="nlabel" d="M 215.2054,268.9083 ZM 220.2005,263.5332 h 3.3618 l -1.7854,-5.1661 h -0.1140 l -1.9411,4.9135 c -0.0722,0.1956 0.0608,0.2526 0.4786 0.2526ZM 220.2005,263.5332 ZM 218.1493,267.4078 c -0.2963,0.7806 0.5964,0.8623 1.3105 0.9117c 0.1140,0.1140 0.1140,0.5128 0.0000 0.6268c -0.7027,-0.0190 -1.6524,-0.0380 -2.4311 -0.0380c -0.5755,-0.0000 -1.1966,0.0190 -1.6904 0.0380c -0.1140,-0.1140 -0.1140,-0.5128 0.0000 -0.6268c 0.8262,-0.0570 1.4055,-0.1709 1.8993 -1.3485l 4.3114,-10.1803 c 0.2469,-0.0000 0.7597,-0.2089 1.0446 -0.3799l 3.9126,10.8641 c 0.3305,0.9155 0.9724,0.9781 1.7094 1.0446c 0.1140,0.1140 0.1140,0.5128 0.0000 0.6268c -0.6648,-0.0190 -1.3865,-0.0380 -2.1652 -0.0380c -0.7407,-0.0000 -1.7854,0.0190 -2.4881 0.0380c -0.1140,-0.1140 -0.1140,-0.5128 0.0000 -0.6268c 0.9041,-0.0646 1.6296,-0.1235 1.4055 -0.7787l -1.1016,-3.2098 h -4.0075 c -0.4558,-0.0000 -0.5698,0.0760 -0.6648 0.3229Z" fill-opacity="1.0"/></g><g fill="rgb(0,0,0)" fill-opacity="0.0" stroke="rgb(0,0,0)" stroke-linecap="butt" stroke-linejoin="miter" stroke-miterlimit="10.0" stroke-opacity="1.0" stroke-width="0.819672131147541"><path class="edge" d="M 193.9705,53.9701 c 3.6402,7.5521 7.8507,17.1736 10.4862 26.1761c 13.6755,46.7013 13.3143,59.6482 16.7966 108.1807c 0.8037,11.1819 0.8829,23.4744 0.6769 34.3612" fill="none" fill-opacity="0.0"/><path class="edge" d="M 193.6013,54.1481 l 0.7384,-0.3559 l -8.6303,-17.9045 l -0.7384,0.3559 Z" fill-opacity="1.0" stroke-width="0.0"/><path class="edge" d="M 221.5476,222.6808 l -0.0155,0.8195 l -5.5016,9.1256 l 5.5486,10.0448 l 5.9248,-9.8276 l -5.1523,-9.3273 l 0.0155,-0.8195 l -0.4098,-0.0078 l -0.0310,1.6391 l 4.6333,8.3878 l -4.9474,8.2065 l -4.6333,-8.3878 l 4.9474,-8.2065 l 0.0310,-1.6391 l -0.4098,-0.0078 Z" fill-opacity="1.0" stroke-width="0.0"/><path class="elabel" d="M 232.7954,240.8217 ZM 237.2018,229.9006 c -0.8547,-0.0000 -2.0133,0.8737 -2.0133 5.5460c 0.0000,1.6524 0.1899,4.9002 1.9563 4.9002c 0.3419,-0.0000 1.2725,-0.1709 1.6904 -1.7284c 0.2659,-0.9686 0.3229,-2.1652 0.3229 -3.9126c 0.0000,-2.5451 -0.5128,-3.9886 -1.1016 -4.4824c -0.2279,-0.2089 -0.5318,-0.3229 -0.8547 -0.3229ZM 237.2018,229.9006 ZM 237.1259,241.0116 c -0.7350,-0.0000 -1.3865,-0.2583 -1.9259 -0.7977c -1.0389,-1.0351 -1.6638,-2.9515 -1.6638 -4.9762c 0.0000,-3.7606 1.7854,-6.0018 3.6657 -6.0018c 1.0256,-0.0000 1.8195,0.5755 2.3172 1.2346c 0.8357,1.1016 1.2915,2.7160 1.2915 4.5963c 0.0000,4.4634 -2.2222,5.9448 -3.6847 5.9448ZM 241.6272,240.8217 ZM 242.7098,240.0050 c 0.0000,-0.5508 0.4558,-1.0066 1.0066 -1.0066c 0.5508,-0.0000 1.0066,0.4558 1.0066 1.0066c 0.0000,0.5508 -0.4558,1.0066 -1.0066 1.0066c -0.5508,-0.0000 -1.0066,-0.4558 -1.0066 -1.0066ZM 245.8057,240.8217 ZM 246.8883,240.0050 c 0.0000,-0.5508 0.4558,-1.0066 1.0066 -1.0066c 0.5508,-0.0000 1.0066,0.4558 1.0066 1.0066c 0.0000,0.5508 -0.4558,1.0066 -1.0066 1.0066c -0.5508,-0.0000 -1.0066,-0.4558 -1.0066 -1.0066ZM 249.9842,240.8217 ZM 251.1428,231.9329 c 0.0000,-1.1396 1.3105,-2.6970 3.4188 -2.6970c 1.5384,-0.0000 3.2098,0.8357 3.2098 2.8870c 0.0000,1.4435 -0.8167,2.2792 -1.8993 3.3238l -1.9183,1.8423 c -0.0950,0.0950 -1.4055,1.3865 -1.4055 2.2982h 3.3808 c 0.6838,-0.0000 1.0066,-0.4748 1.3295 -1.8233c 0.1899,-0.0380 0.4368,-0.0000 0.5508 0.0950c -0.0190,0.5698 -0.2089,1.9943 -0.4558 3.0009c 0.0000,-0.0000 -0.8737,-0.0380 -1.4815 -0.0380h -3.3238 c -0.6078,-0.0000 -1.5764,0.0380 -1.5764 0.0380c 0.0000,-1.1206 0.3039,-2.0323 2.1652 -3.9316l 1.4055,-1.3865 c 1.1206,-1.1396 1.5574,-2.1272 1.5574 -3.3428c 0.0000,-1.8233 -0.9686,-2.2982 -1.6524 -2.2982c -1.3865,-0.0000 -1.8803,0.6838 -1.8803 1.1586c 0.0000,0.1519 0.1140,0.3229 0.1519 0.4558c 0.0380,0.1330 0.0760,0.2469 0.0760 0.3989c 0.0000,0.4197 -0.5698,0.7597 -0.8927 0.7597c -0.3989,-0.0000 -0.7597,-0.3419 -0.7597 -0.7407Z" fill-opacity="1.0" stroke-width="0.0"/><path class="elabel" d="M 190.0967,43.0713 ZM 195.5667,40.7541 c 0.0000,1.5764 0.3229,1.6714 1.6524 1.7284c 0.1140,0.1140 0.1140,0.5128 0.0000 0.6268c -0.9497,-0.0190 -1.4131,-0.0380 -2.3172 -0.0380c -1.0294,-0.0000 -1.7094,0.0190 -2.6400 0.0380c -0.1140,-0.1140 -0.1140,-0.5128 0.0000 -0.6268c 1.3295,-0.0570 1.8423,-0.1519 1.8423 -1.7284v -6.1918 c 0.0000,-0.6458 -0.0665,-1.1016 -0.3799 -1.1016c -0.3609,-0.0000 -0.7882,0.1140 -1.6524 0.4748c -0.1709,-0.1159 -0.2545,-0.2963 -0.2849 -0.5128c 1.6714,-0.7787 2.6723,-1.2478 3.7227 -1.8993c 0.0665,-0.0000 0.1140,0.0038 0.1140 0.0950c -0.0323,0.2469 -0.0570,1.4055 -0.0570 2.5451v 6.5906 ZM 198.9285,43.0713 ZM 200.0111,42.2546 c 0.0000,-0.5508 0.4558,-1.0066 1.0066 -1.0066c 0.5508,-0.0000 1.0066,0.4558 1.0066 1.0066c 0.0000,0.5508 -0.4558,1.0066 -1.0066 1.0066c -0.5508,-0.0000 -1.0066,-0.4558 -1.0066 -1.0066ZM 203.1070,43.0713 ZM 204.1896,42.2546 c 0.0000,-0.5508 0.4558,-1.0066 1.0066 -1.0066c 0.5508,-0.0000 1.0066,0.4558 1.0066 1.0066c 0.0000,0.5508 -0.4558,1.0066 -1.0066 1.0066c -0.5508,-0.0000 -1.0066,-0.4558 -1.0066 -1.0066ZM 207.2855,43.0713 ZM 210.4763,32.6820 c -0.2469,-0.0570 -0.5128,-0.0760 -0.7977 -0.0760c -0.9307,-0.0000 -1.5384,-0.1330 -1.5384 -0.7027c 0.0000,-0.2659 0.1709,-0.5698 0.6268 -0.5698c 0.6458,-0.0000 0.9876,0.6268 1.8233 0.9686c -0.0760,-0.7407 -0.4368,-1.2535 -0.4368 -1.7474c 0.0000,-0.3989 0.2279,-0.7407 0.5698 -0.7407c 0.3419,-0.0000 0.6268,0.2089 0.6268 0.6648c 0.0000,0.5128 -0.3229,1.2725 -0.3609 1.8423c 0.8737,-0.3799 1.1776,-0.9876 1.8043 -0.9876c 0.5128,-0.0000 0.6458,0.3799 0.6458 0.5698c 0.0000,0.5698 -0.6648,0.7027 -1.3105 0.7027c -0.3609,-0.0000 -0.7027,0.0190 -1.0446 0.0760c 0.6458,0.7027 1.5764,0.8927 1.5764 1.6524c 0.0000,0.3419 -0.2849,0.5508 -0.5508 0.5508c -0.7407,-0.0000 -0.8737,-1.2346 -1.3485 -1.9753c -0.4748,0.8547 -0.6078,1.9753 -1.3295 1.9753c -0.3229,-0.0000 -0.5508,-0.2469 -0.5508 -0.5318c 0.0000,-0.8167 0.9686,-0.9686 1.5954 -1.6714Z" fill-opacity="1.0" stroke-width="0.0"/><path class="elabel" d="M 208.1453,102.2362 ZM 212.0009,94.6770 c -0.9117,0.0570 -0.9307,0.3609 -0.5717 1.2725l 1.5195,3.9126 c 0.2450,0.6173 0.2868,0.5888 0.5337 -0.0380l 1.3295,-3.3618 l -0.1216,-0.3039 c -0.3400,-0.8509 -0.5622,-1.3960 -1.4549 -1.4815c -0.1140,-0.1140 -0.1140,-0.5128 0.0000 -0.6268c 0.5698,0.0190 1.1966,0.0380 1.6714 0.0380c 0.5698,-0.0000 1.3295,-0.0190 1.8993 -0.0380c 0.1140,0.1140 0.1140,0.5128 0.0000 0.6268c -1.0066,0.0760 -1.0446,0.2659 -0.6932 1.1586l 1.6391,4.1595 c 0.1557,0.3951 0.2317,0.3989 0.4216 -0.0760l 1.5878,-3.9506 c 0.2678,-0.6667 0.4634,-1.2156 -0.9611 -1.2915c -0.1140,-0.1140 -0.1140,-0.5128 0.0000 -0.6268c 0.5698,0.0190 1.3675,0.0380 1.9373 0.0380c 0.5698,-0.0000 0.9876,-0.0190 1.3675 -0.0380c 0.1140,0.1140 0.1140,0.5128 0.0000 0.6268c -0.9686,0.0570 -1.2915,0.5907 -1.6030 1.3675l -2.4805,6.0208 c -0.1140,0.2849 -0.2659,0.3989 -0.4368 0.3989c -0.1899,-0.0000 -0.3419,-0.1140 -0.4558 -0.3799l -1.9563,-4.7103 l -1.9183,4.6723 c -0.1330,0.3039 -0.2849,0.4178 -0.4558 0.4178c -0.1899,-0.0000 -0.3419,-0.1140 -0.4558 -0.3799l -2.4862,-6.1348 c -0.4008,-0.9876 -0.6078,-1.1814 -1.5024 -1.2725c -0.1140,-0.1140 -0.1140,-0.5128 0.0000 -0.6268c 0.4976,0.0190 1.0066,0.0380 1.7284 0.0380c 0.6838,-0.0000 1.3485,-0.0190 1.9183 -0.0380c 0.1140,0.1140 0.1140,0.5128 0.0000 0.6268Z" fill-opacity="1.0" stroke-width="0.0"/></g><g fill="rgb(0,0,0)" fill-opacity="0.0" stroke="rgb(0,0,0)" stroke-linecap="butt" stroke-linejoin="miter" stroke-miterlimit="10.0" stroke-opacity="1.0" stroke-width="0.819672131147541"><path class="edge" d="M 209.5328,287.7826 c -7.5931,17.2295 -21.9110,49.7158 -29.5534 67.0578" fill="none" fill-opacity="0.0"/><path class="edge" d="M 209.1577,287.6173 l 0.7501,0.3306 l 4.0078,-9.0940 l -0.7501,-0.3306 Z" fill-opacity="1.0" stroke-width="0.0"/><path class="edge" d="M 179.6043,354.6751 l 0.7501,0.3305 l -4.0077,9.0941 l -0.7501,-0.3305 Z" fill-opacity="1.0" stroke-width="0.0"/><path class="elabel" d="M 178.7541,373.5900 ZM 183.1605,362.6690 c -0.8547,-0.0000 -2.0133,0.8737 -2.0133 5.5460c 0.0000,1.6524 0.1899,4.9002 1.9563 4.9002c 0.3419,-0.0000 1.2725,-0.1709 1.6904 -1.7284c 0.2659,-0.9686 0.3229,-2.1652 0.3229 -3.9126c 0.0000,-2.5451 -0.5128,-3.9886 -1.1016 -4.4824c -0.2279,-0.2089 -0.5318,-0.3229 -0.8547 -0.3229ZM 183.1605,362.6690 ZM 183.0845,373.7799 c -0.7350,-0.0000 -1.3865,-0.2583 -1.9259 -0.7977c -1.0389,-1.0351 -1.6638,-2.9515 -1.6638 -4.9762c 0.0000,-3.7606 1.7854,-6.0018 3.6657 -6.0018c 1.0256,-0.0000 1.8195,0.5755 2.3172 1.2346c 0.8357,1.1016 1.2915,2.7160 1.2915 4.5963c 0.0000,4.4634 -2.2222,5.9448 -3.6847 5.9448ZM 187.5859,373.5900 ZM 188.6685,372.7733 c 0.0000,-0.5508 0.4558,-1.0066 1.0066 -1.0066c 0.5508,-0.0000 1.0066,0.4558 1.0066 1.0066c 0.0000,0.5508 -0.4558,1.0066 -1.0066 1.0066c -0.5508,-0.0000 -1.0066,-0.4558 -1.0066 -1.0066ZM 191.7644,373.5900 ZM 192.8470,372.7733 c 0.0000,-0.5508 0.4558,-1.0066 1.0066 -1.0066c 0.5508,-0.0000 1.0066,0.4558 1.0066 1.0066c 0.0000,0.5508 -0.4558,1.0066 -1.0066 1.0066c -0.5508,-0.0000 -1.0066,-0.4558 -1.0066 -1.0066ZM 195.9428,373.5900 ZM 201.4129,371.2729 c 0.0000,1.5764 0.3229,1.6714 1.6524 1.7284c 0.1140,0.1140 0.1140,0.5128 0.0000 0.6268c -0.9497,-0.0190 -1.4131,-0.0380 -2.3172 -0.0380c -1.0294,-0.0000 -1.7094,0.0190 -2.6400 0.0380c -0.1140,-0.1140 -0.1140,-0.5128 0.0000 -0.6268c 1.3295,-0.0570 1.8423,-0.1519 1.8423 -1.7284v -6.1918 c 0.0000,-0.6458 -0.0665,-1.1016 -0.3799 -1.1016c -0.3609,-0.0000 -0.7882,0.1140 -1.6524 0.4748c -0.1709,-0.1159 -0.2545,-0.2963 -0.2849 -0.5128c 1.6714,-0.7787 2.6723,-1.2478 3.7227 -1.8993c 0.0665,-0.0000 0.1140,0.0038 0.1140 0.0950c -0.0323,0.2469 -0.0570,1.4055 -0.0570 2.5451v 6.5906 Z" fill-opacity="1.0" stroke-width="0.0"/><path class="elabel" d="M 193.7913,334.6951 ZM 195.1398,326.3571 c 0.2754,0.1026 0.5109,0.1899 1.1206 0.1899h 3.4757 c 0.5508,-0.0000 1.0826,-0.0380 1.1776 -0.0380c 0.1330,-0.0000 0.2279,0.0570 0.2279 0.1330c 0.0000,0.0760 -0.0513,0.2241 -0.3419 0.7027c -1.1776,1.9373 -3.1529,4.9192 -4.5584 6.7046h 2.5261 c 0.9895,-0.0228 1.3770,-0.4406 1.8613 -1.4435l 0.2659,-0.5508 c 0.2279,-0.0000 0.4463,0.0437 0.5698 0.1140c -0.1330,0.9497 -0.3799,1.9373 -0.6078 2.5831l -5.9259,-0.0570 c -0.2849,-0.0000 -0.4368,-0.0950 -0.4368 -0.2279c 0.0000,-0.0950 0.0076,-0.1595 0.1709 -0.3799c 1.4815,-1.9943 3.3808,-4.7293 4.6723 -6.8945l -2.4311,0.0570 c -0.5698,0.0133 -1.1586,0.3419 -1.5384 1.7284c -0.2203,0.0494 -0.4596,0.0133 -0.6268 -0.0570c 0.1709,-0.9307 0.2659,-1.5954 0.2849 -2.4501c 0.0000,-0.0456 0.0684,-0.1140 0.1140 -0.1140Z" fill-opacity="1.0" stroke-width="0.0"/></g><g fill="rgb(0,0,0)" fill-opacity="0.0" stroke="rgb(0,0,0)" stroke-linecap="butt" stroke-linejoin="miter" stroke-miterlimit="10.0" stroke-opacity="1.0" stroke-width="0.819672131147541"><path class="edge" d="M 207.8369,224.0052 c -4.5031,-12.0464 -12.0190,-32.1390 -17.9179 -47.9091" fill="none" fill-opacity="0.0"/><path class="edge" d="M 208.2208,223.8617 l -0.7678,0.2870 l 6.9596,18.6177 l 0.7678,-0.2870 Z" fill-opacity="1.0" stroke-width="0.0"/><path class="edge" d="M 190.3029,175.9526 l -0.7677,0.2872 l -0.2872,-0.7677 l -8.2232,-6.7767 l 1.8923,-11.3183 l 8.8558,7.2980 l -1.7572,10.5099 l 0.2872,0.7677 l -0.7677,0.2872 Z" fill-opacity="1.0" stroke-width="0.0"/><path class="elabel" d="M 152.8853,179.1504 ZM 157.2917,168.2293 c -0.8547,-0.0000 -2.0133,0.8737 -2.0133 5.5460c 0.0000,1.6524 0.1899,4.9002 1.9563 4.9002c 0.3419,-0.0000 1.2725,-0.1709 1.6904 -1.7284c 0.2659,-0.9686 0.3229,-2.1652 0.3229 -3.9126c 0.0000,-2.5451 -0.5128,-3.9886 -1.1016 -4.4824c -0.2279,-0.2089 -0.5318,-0.3229 -0.8547 -0.3229ZM 157.2917,168.2293 ZM 157.2158,179.3403 c -0.7350,-0.0000 -1.3865,-0.2583 -1.9259 -0.7977c -1.0389,-1.0351 -1.6638,-2.9515 -1.6638 -4.9762c 0.0000,-3.7606 1.7854,-6.0018 3.6657 -6.0018c 1.0256,-0.0000 1.8195,0.5755 2.3172 1.2346c 0.8357,1.1016 1.2915,2.7160 1.2915 4.5963c 0.0000,4.4634 -2.2222,5.9448 -3.6847 5.9448ZM 161.7171,179.1504 ZM 162.7998,178.3337 c 0.0000,-0.5508 0.4558,-1.0066 1.0066 -1.0066c 0.5508,-0.0000 1.0066,0.4558 1.0066 1.0066c 0.0000,0.5508 -0.4558,1.0066 -1.0066 1.0066c -0.5508,-0.0000 -1.0066,-0.4558 -1.0066 -1.0066ZM 165.8956,179.1504 ZM 166.9782,178.3337 c 0.0000,-0.5508 0.4558,-1.0066 1.0066 -1.0066c 0.5508,-0.0000 1.0066,0.4558 1.0066 1.0066c 0.0000,0.5508 -0.4558,1.0066 -1.0066 1.0066c -0.5508,-0.0000 -1.0066,-0.4558 -1.0066 -1.0066ZM 170.0741,179.1504 ZM 175.5441,176.8332 c 0.0000,1.5764 0.3229,1.6714 1.6524 1.7284c 0.1140,0.1140 0.1140,0.5128 0.0000 0.6268c -0.9497,-0.0190 -1.4131,-0.0380 -2.3172 -0.0380c -1.0294,-0.0000 -1.7094,0.0190 -2.6400 0.0380c -0.1140,-0.1140 -0.1140,-0.5128 0.0000 -0.6268c 1.3295,-0.0570 1.8423,-0.1519 1.8423 -1.7284v -6.1918 c 0.0000,-0.6458 -0.0665,-1.1016 -0.3799 -1.1016c -0.3609,-0.0000 -0.7882,0.1140 -1.6524 0.4748c -0.1709,-0.1159 -0.2545,-0.2963 -0.2849 -0.5128c 1.6714,-0.7787 2.6723,-1.2478 3.7227 -1.8993c 0.0665,-0.0000 0.1140,0.0038 0.1140 0.0950c -0.0323,0.2469 -0.0570,1.4055 -0.0570 2.5451v 6.5906 Z" fill-opacity="1.0" stroke-width="0.0"/><path class="elabel" d="M 184.7845,252.1342 ZM 190.2545,249.8171 c 0.0000,1.5764 0.3229,1.6714 1.6524 1.7284c 0.1140,0.1140 0.1140,0.5128 0.0000 0.6268c -0.9497,-0.0190 -1.4131,-0.0380 -2.3172 -0.0380c -1.0294,-0.0000 -1.7094,0.0190 -2.6400 0.0380c -0.1140,-0.1140 -0.1140,-0.5128 0.0000 -0.6268c 1.3295,-0.0570 1.8423,-0.1519 1.8423 -1.7284v -6.1918 c 0.0000,-0.6458 -0.0665,-1.1016 -0.3799 -1.1016c -0.3609,-0.0000 -0.7882,0.1140 -1.6524 0.4748c -0.1709,-0.1159 -0.2545,-0.2963 -0.2849 -0.5128c 1.6714,-0.7787 2.6723,-1.2478 3.7227 -1.8993c 0.0665,-0.0000 0.1140,0.0038 0.1140 0.0950c -0.0323,0.2469 -0.0570,1.4055 -0.0570 2.5451v 6.5906 ZM 193.6163,252.1342 ZM 194.6989,251.3175 c 0.0000,-0.5508 0.4558,-1.0066 1.0066 -1.0066c 0.5508,-0.0000 1.0066,0.4558 1.0066 1.0066c 0.0000,0.5508 -0.4558,1.0066 -1.0066 1.0066c -0.5508,-0.0000 -1.0066,-0.4558 -1.0066 -1.0066ZM 197.7948,252.1342 ZM 198.8774,251.3175 c 0.0000,-0.5508 0.4558,-1.0066 1.0066 -1.0066c 0.5508,-0.0000 1.0066,0.4558 1.0066 1.0066c 0.0000,0.5508 -0.4558,1.0066 -1.0066 1.0066c -0.5508,-0.0000 -1.0066,-0.4558 -1.0066 -1.0066ZM 201.9733,252.1342 ZM 203.1318,243.2454 c 0.0000,-1.1396 1.3105,-2.6970 3.4188 -2.6970c 1.5384,-0.0000 3.2098,0.8357 3.2098 2.8870c 0.0000,1.4435 -0.8167,2.2792 -1.8993 3.3238l -1.9183,1.8423 c -0.0950,0.0950 -1.4055,1.3865 -1.4055 2.2982h 3.3808 c 0.6838,-0.0000 1.0066,-0.4748 1.3295 -1.8233c 0.1899,-0.0380 0.4368,-0.0000 0.5508 0.0950c -0.0190,0.5698 -0.2089,1.9943 -0.4558 3.0009c 0.0000,-0.0000 -0.8737,-0.0380 -1.4815 -0.0380h -3.3238 c -0.6078,-0.0000 -1.5764,0.0380 -1.5764 0.0380c 0.0000,-1.1206 0.3039,-2.0323 2.1652 -3.9316l 1.4055,-1.3865 c 1.1206,-1.1396 1.5574,-2.1272 1.5574 -3.3428c 0.0000,-1.8233 -0.9686,-2.2982 -1.6524 -2.2982c -1.3865,-0.0000 -1.8803,0.6838 -1.8803 1.1586c 0.0000,0.1519 0.1140,0.3229 0.1519 0.4558c 0.0380,0.1330 0.0760,0.2469 0.0760 0.3989c 0.0000,0.4197 -0.5698,0.7597 -0.8927 0.7597c -0.3989,-0.0000 -0.7597,-0.3419 -0.7597 -0.7407Z" fill-opacity="1.0" stroke-width="0.0"/><path class="elabel" d="M 196.9341,224.5979 ZM 197.7508,216.4498 l 0.8737,-0.0019 c 0.0000,-2.1063 -0.0570,-1.9810 -0.0570 -2.2013c 0.0000,-0.1311 0.1899,-0.1956 0.4178 -0.2602c 0.2374,-0.0665 0.4311,-0.1481 0.6458 -0.2678c 0.1766,-0.0969 0.3381,-0.1709 0.4235 -0.1709c 0.0893,-0.0000 0.1462,0.0456 0.1462 0.1671c 0.0000,-0.0000 -0.0760,0.7597 -0.0760 1.9943v 0.7407 h 2.2792 c 0.0950,-0.0000 0.1519,0.0380 0.1519 0.1140v 0.3799 c 0.0000,0.1709 -0.2659,0.2469 -0.4558 0.2469h -1.9753 v 4.8053 c 0.0000,1.1776 0.1140,1.7474 0.6268 1.7474c 0.4938,-0.0000 1.0636,-0.1519 1.5574 -0.5318c 0.1899,0.0190 0.3039,0.1273 0.3419 0.3229c -0.7407,0.8357 -1.6904,1.2535 -2.5641 1.2535c -0.8737,-0.0000 -1.4625,-0.5318 -1.4625 -1.8803v -5.7169 h -1.1206 c -0.0760,-0.0000 -0.0950,-0.0190 -0.0950 -0.1140v -0.2469 c 0.0000,-0.1519 0.0760,-0.3799 0.3419 -0.3799Z" fill-opacity="1.0" stroke-width="0.0"/></g><g fill="rgb(0,0,0)" fill-opacity="0.0" stroke="rgb(0,0,0)" stroke-linecap="butt" stroke-linejoin="miter" stroke-miterlimit="10.0" stroke-opacity="1.0" stroke-width="0.819672131147541"><path class="edge" d="M 168.9941,344.0697 c 1.1121,-33.0011 4.0390,-119.8359 5.6190 -166.7182" fill="none" fill-opacity="0.0"/><path class="edge" d="M 169.4037,344.0835 l -0.8192,-0.0276 l -0.6694,19.8647 l 0.8192,0.0276 Z" fill-opacity="1.0" stroke-width="0.0"/><path class="edge" d="M 175.0227,177.3653 l -0.8192,-0.0276 l 0.0276,-0.8192 l -5.0140,-9.4024 l 6.0692,-9.7391 l 5.3997,10.1256 l -5.6357,9.0434 l -0.0276,0.8192 l -0.8192,-0.0276 Z" fill-opacity="1.0" stroke-width="0.0"/><path class="elabel" d="M 142.3912,177.8455 ZM 146.7976,166.9245 c -0.8547,-0.0000 -2.0133,0.8737 -2.0133 5.5460c 0.0000,1.6524 0.1899,4.9002 1.9563 4.9002c 0.3419,-0.0000 1.2725,-0.1709 1.6904 -1.7284c 0.2659,-0.9686 0.3229,-2.1652 0.3229 -3.9126c 0.0000,-2.5451 -0.5128,-3.9886 -1.1016 -4.4824c -0.2279,-0.2089 -0.5318,-0.3229 -0.8547 -0.3229ZM 146.7976,166.9245 ZM 146.7216,178.0354 c -0.7350,-0.0000 -1.3865,-0.2583 -1.9259 -0.7977c -1.0389,-1.0351 -1.6638,-2.9515 -1.6638 -4.9762c 0.0000,-3.7606 1.7854,-6.0018 3.6657 -6.0018c 1.0256,-0.0000 1.8195,0.5755 2.3172 1.2346c 0.8357,1.1016 1.2915,2.7160 1.2915 4.5963c 0.0000,4.4634 -2.2222,5.9448 -3.6847 5.9448ZM 151.2230,177.8455 ZM 152.3056,177.0288 c 0.0000,-0.5508 0.4558,-1.0066 1.0066 -1.0066c 0.5508,-0.0000 1.0066,0.4558 1.0066 1.0066c 0.0000,0.5508 -0.4558,1.0066 -1.0066 1.0066c -0.5508,-0.0000 -1.0066,-0.4558 -1.0066 -1.0066ZM 155.4015,177.8455 ZM 156.4841,177.0288 c 0.0000,-0.5508 0.4558,-1.0066 1.0066 -1.0066c 0.5508,-0.0000 1.0066,0.4558 1.0066 1.0066c 0.0000,0.5508 -0.4558,1.0066 -1.0066 1.0066c -0.5508,-0.0000 -1.0066,-0.4558 -1.0066 -1.0066ZM 159.5799,177.8455 ZM 165.0500,175.5283 c 0.0000,1.5764 0.3229,1.6714 1.6524 1.7284c 0.1140,0.1140 0.1140,0.5128 0.0000 0.6268c -0.9497,-0.0190 -1.4131,-0.0380 -2.3172 -0.0380c -1.0294,-0.0000 -1.7094,0.0190 -2.6400 0.0380c -0.1140,-0.1140 -0.1140,-0.5128 0.0000 -0.6268c 1.3295,-0.0570 1.8423,-0.1519 1.8423 -1.7284v -6.1918 c 0.0000,-0.6458 -0.0665,-1.1016 -0.3799 -1.1016c -0.3609,-0.0000 -0.7882,0.1140 -1.6524 0.4748c -0.1709,-0.1159 -0.2545,-0.2963 -0.2849 -0.5128c 1.6714,-0.7787 2.6723,-1.2478 3.7227 -1.8993c 0.0665,-0.0000 0.1140,0.0038 0.1140 0.0950c -0.0323,0.2469 -0.0570,1.4055 -0.0570 2.5451v 6.5906 Z" fill-opacity="1.0" stroke-width="0.0"/><path class="elabel" d="M 141.1840,362.0991 ZM 142.3426,353.2103 c 0.0000,-1.1396 1.3105,-2.6970 3.4188 -2.6970c 1.5384,-0.0000 3.2098,0.8357 3.2098 2.8870c 0.0000,1.4435 -0.8167,2.2792 -1.8993 3.3238l -1.9183,1.8423 c -0.0950,0.0950 -1.4055,1.3865 -1.4055 2.2982h 3.3808 c 0.6838,-0.0000 1.0066,-0.4748 1.3295 -1.8233c 0.1899,-0.0380 0.4368,-0.0000 0.5508 0.0950c -0.0190,0.5698 -0.2089,1.9943 -0.4558 3.0009c 0.0000,-0.0000 -0.8737,-0.0380 -1.4815 -0.0380h -3.3238 c -0.6078,-0.0000 -1.5764,0.0380 -1.5764 0.0380c 0.0000,-1.1206 0.3039,-2.0323 2.1652 -3.9316l 1.4055,-1.3865 c 1.1206,-1.1396 1.5574,-2.1272 1.5574 -3.3428c 0.0000,-1.8233 -0.9686,-2.2982 -1.6524 -2.2982c -1.3865,-0.0000 -1.8803,0.6838 -1.8803 1.1586c 0.0000,0.1519 0.1140,0.3229 0.1519 0.4558c 0.0380,0.1330 0.0760,0.2469 0.0760 0.3989c 0.0000,0.4197 -0.5698,0.7597 -0.8927 0.7597c -0.3989,-0.0000 -0.7597,-0.3419 -0.7597 -0.7407ZM 150.0158,362.0991 ZM 151.0984,361.2824 c 0.0000,-0.5508 0.4558,-1.0066 1.0066 -1.0066c 0.5508,-0.0000 1.0066,0.4558 1.0066 1.0066c 0.0000,0.5508 -0.4558,1.0066 -1.0066 1.0066c -0.5508,-0.0000 -1.0066,-0.4558 -1.0066 -1.0066ZM 154.1943,362.0991 ZM 155.2769,361.2824 c 0.0000,-0.5508 0.4558,-1.0066 1.0066 -1.0066c 0.5508,-0.0000 1.0066,0.4558 1.0066 1.0066c 0.0000,0.5508 -0.4558,1.0066 -1.0066 1.0066c -0.5508,-0.0000 -1.0066,-0.4558 -1.0066 -1.0066ZM 158.3728,362.0991 ZM 161.5636,351.7099 c -0.2469,-0.0570 -0.5128,-0.0760 -0.7977 -0.0760c -0.9307,-0.0000 -1.5384,-0.1330 -1.5384 -0.7027c 0.0000,-0.2659 0.1709,-0.5698 0.6268 -0.5698c 0.6458,-0.0000 0.9876,0.6268 1.8233 0.9686c -0.0760,-0.7407 -0.4368,-1.2535 -0.4368 -1.7474c 0.0000,-0.3989 0.2279,-0.7407 0.5698 -0.7407c 0.3419,-0.0000 0.6268,0.2089 0.6268 0.6648c 0.0000,0.5128 -0.3229,1.2725 -0.3609 1.8423c 0.8737,-0.3799 1.1776,-0.9876 1.8043 -0.9876c 0.5128,-0.0000 0.6458,0.3799 0.6458 0.5698c 0.0000,0.5698 -0.6648,0.7027 -1.3105 0.7027c -0.3609,-0.0000 -0.7027,0.0190 -1.0446 0.0760c 0.6458,0.7027 1.5764,0.8927 1.5764 1.6524c 0.0000,0.3419 -0.2849,0.5508 -0.5508 0.5508c -0.7407,-0.0000 -0.8737,-1.2346 -1.3485 -1.9753c -0.4748,0.8547 -0.6078,1.9753 -1.3295 1.9753c -0.3229,-0.0000 -0.5508,-0.2469 -0.5508 -0.5318c 0.0000,-0.8167 0.9686,-0.9686 1.5954 -1.6714Z" fill-opacity="1.0" stroke-width="0.0"/><path class="elabel" d="M 163.4416,298.0965 ZM 164.3533,295.4755 c 0.1140,-0.1140 0.4748,-0.1330 0.5888 -0.0190c 0.1140,0.4748 0.3229,1.3105 0.7407 1.7474c 0.1956,0.2032 0.6078,0.4558 1.3485 0.4558c 0.7027,-0.0000 1.6144,-0.3989 1.6144 -1.3295c 0.0000,-0.8167 -0.3609,-1.2156 -1.9373 -1.8613c -1.4625,-0.6078 -2.0892,-1.1966 -2.0892 -2.5831c 0.0000,-1.2156 1.2725,-2.1272 2.6780 -2.1272c 0.9876,-0.0000 1.8993,0.2659 2.4881 0.3609c -0.0190,0.6268 -0.0570,1.3295 -0.1140 2.0133c -0.1140,0.1140 -0.4938,0.1330 -0.6078 0.0190c -0.2469,-1.6144 -1.3485,-1.7664 -1.7664 -1.7664c -0.6458,-0.0000 -1.3295,0.4368 -1.3295 1.2156c 0.0000,1.0446 0.7559,1.3390 1.8993 1.7626c 1.2915,0.4786 2.2222,1.2327 2.2222 2.5299c 0.0000,1.8803 -1.9563,2.3931 -3.0199 2.3931c -0.7027,-0.0000 -1.2156,-0.0760 -1.7284 -0.2089c -0.1330,-0.0380 -0.2469,-0.0380 -0.3799 -0.0380c -0.0950,-0.0000 -0.2849,0.0190 -0.4748 0.0570c 0.0000,-0.7977 -0.0570,-1.6904 -0.1330 -2.6211Z" fill-opacity="1.0" stroke-width="0.0"/></g><g fill="rgb(0,0,0)" fill-opacity="0.0" stroke="rgb(0,0,0)" stroke-linecap="butt" stroke-linejoin="miter" stroke-miterlimit="10.0" stroke-opacity="1.0" stroke-width="0.819672131147541"><path class="edge" d="M 175.9038,101.4355 c 0.0000,-11.4210 0.0000,-30.3206 0.0000 -45.4314" fill="none" fill-opacity="0.0"/><path class="edge" d="M 176.3137,101.4355 l -0.8197,0.0000 l -0.0000,19.8760 l 0.8197,0.0000 Z" fill-opacity="1.0" stroke-width="0.0"/><path class="edge" d="M 176.2863,56.0041 v -0.8197 l 5.3279,-9.2281 l -5.7377,-9.9380 l -5.7377,9.9380 l 5.3279,9.2281 l -0.0000,0.8197 l 0.4098,0.0000 l 0.0000,-1.6393 l -4.7912,-8.2987 l 4.7912,-8.2987 l 4.7912,8.2987 l -4.7912,8.2987 l -0.0000,1.6393 l 0.4098,0.0000 Z" fill-opacity="1.0" stroke-width="0.0"/><path class="elabel" d="M 143.3259,50.3696 ZM 147.7323,39.4485 c -0.8547,-0.0000 -2.0133,0.8737 -2.0133 5.5460c 0.0000,1.6524 0.1899,4.9002 1.9563 4.9002c 0.3419,-0.0000 1.2725,-0.1709 1.6904 -1.7284c 0.2659,-0.9686 0.3229,-2.1652 0.3229 -3.9126c 0.0000,-2.5451 -0.5128,-3.9886 -1.1016 -4.4824c -0.2279,-0.2089 -0.5318,-0.3229 -0.8547 -0.3229ZM 147.7323,39.4485 ZM 147.6563,50.5595 c -0.7350,-0.0000 -1.3865,-0.2583 -1.9259 -0.7977c -1.0389,-1.0351 -1.6638,-2.9515 -1.6638 -4.9762c 0.0000,-3.7606 1.7854,-6.0018 3.6657 -6.0018c 1.0256,-0.0000 1.8195,0.5755 2.3172 1.2346c 0.8357,1.1016 1.2915,2.7160 1.2915 4.5963c 0.0000,4.4634 -2.2222,5.9448 -3.6847 5.9448ZM 152.1577,50.3696 ZM 153.2403,49.5529 c 0.0000,-0.5508 0.4558,-1.0066 1.0066 -1.0066c 0.5508,-0.0000 1.0066,0.4558 1.0066 1.0066c 0.0000,0.5508 -0.4558,1.0066 -1.0066 1.0066c -0.5508,-0.0000 -1.0066,-0.4558 -1.0066 -1.0066ZM 156.3362,50.3696 ZM 157.4188,49.5529 c 0.0000,-0.5508 0.4558,-1.0066 1.0066 -1.0066c 0.5508,-0.0000 1.0066,0.4558 1.0066 1.0066c 0.0000,0.5508 -0.4558,1.0066 -1.0066 1.0066c -0.5508,-0.0000 -1.0066,-0.4558 -1.0066 -1.0066ZM 160.5146,50.3696 ZM 161.6732,41.4808 c 0.0000,-1.1396 1.3105,-2.6970 3.4188 -2.6970c 1.5384,-0.0000 3.2098,0.8357 3.2098 2.8870c 0.0000,1.4435 -0.8167,2.2792 -1.8993 3.3238l -1.9183,1.8423 c -0.0950,0.0950 -1.4055,1.3865 -1.4055 2.2982h 3.3808 c 0.6838,-0.0000 1.0066,-0.4748 1.3295 -1.8233c 0.1899,-0.0380 0.4368,-0.0000 0.5508 0.0950c -0.0190,0.5698 -0.2089,1.9943 -0.4558 3.0009c 0.0000,-0.0000 -0.8737,-0.0380 -1.4815 -0.0380h -3.3238 c -0.6078,-0.0000 -1.5764,0.0380 -1.5764 0.0380c 0.0000,-1.1206 0.3039,-2.0323 2.1652 -3.9316l 1.4055,-1.3865 c 1.1206,-1.1396 1.5574,-2.1272 1.5574 -3.3428c 0.0000,-1.8233 -0.9686,-2.2982 -1.6524 -2.2982c -1.3865,-0.0000 -1.8803,0.6838 -1.8803 1.1586c 0.0000,0.1519 0.1140,0.3229 0.1519 0.4558c 0.0380,0.1330 0.0760,0.2469 0.0760 0.3989c 0.0000,0.4197 -0.5698,0.7597 -0.8927 0.7597c -0.3989,-0.0000 -0.7597,-0.3419 -0.7597 -0.7407Z" fill-opacity="1.0" stroke-width="0.0"/><path class="elabel" d="M 163.7933,124.8647 ZM 169.2634,122.5475 c 0.0000,1.5764 0.3229,1.6714 1.6524 1.7284c 0.1140,0.1140 0.1140,0.5128 0.0000 0.6268c -0.9497,-0.0190 -1.4131,-0.0380 -2.3172 -0.0380c -1.0294,-0.0000 -1.7094,0.0190 -2.6400 0.0380c -0.1140,-0.1140 -0.1140,-0.5128 0.0000 -0.6268c 1.3295,-0.0570 1.8423,-0.1519 1.8423 -1.7284v -6.1918 c 0.0000,-0.6458 -0.0665,-1.1016 -0.3799 -1.1016c -0.3609,-0.0000 -0.7882,0.1140 -1.6524 0.4748c -0.1709,-0.1159 -0.2545,-0.2963 -0.2849 -0.5128c 1.6714,-0.7787 2.6723,-1.2478 3.7227 -1.8993c 0.0665,-0.0000 0.1140,0.0038 0.1140 0.0950c -0.0323,0.2469 -0.0570,1.4055 -0.0570 2.5451v 6.5906 Z" fill-opacity="1.0" stroke-width="0.0"/><path class="elabel" d="M 166.1224,98.4655 ZM 169.9970,101.5044 c -0.6838,1.2156 -1.4435,1.3675 -1.8423 1.3675c -0.5128,-0.0000 -0.8927,-0.3039 -0.8927 -0.7027c 0.0000,-0.2469 0.2849,-0.8167 0.8357 -0.8167c 0.2089,-0.0000 0.2849,0.0570 0.5508 0.0570c 0.4748,-0.0000 0.7407,-0.1709 0.9497 -0.5508c 0.2849,-0.5888 0.5147,-1.1130 0.7407 -1.7474c 0.1899,-0.5318 -0.1007,-1.4036 -0.2659 -1.7854l -2.1481,-4.9952 c -0.4976,-1.1586 -0.7445,-1.3295 -1.4986 -1.4245c -0.1140,-0.1140 -0.1140,-0.5128 0.0000 -0.6268c 0.3799,0.0190 0.8927,0.0380 1.5384 0.0380c 0.6838,-0.0000 1.4435,-0.0190 2.1462 -0.0380c 0.1140,0.1140 0.1140,0.5128 0.0000 0.6268c -1.0636,0.0817 -0.9649,0.4330 -0.6230 1.2346l 1.6847,3.9506 c 0.1614,0.3761 0.3210,0.3248 0.4539 0.0190l 1.8841,-4.3494 c 0.3039,-0.6838 -0.3115,-0.7977 -0.9117 -0.8547c -0.1140,-0.1140 -0.1140,-0.5128 0.0000 -0.6268c 0.5698,0.0190 1.1586,0.0380 1.7284 0.0380c 0.5318,-0.0000 0.9686,-0.0190 1.3485 -0.0380c 0.1140,0.1140 0.1140,0.5128 0.0000 0.6268c -0.8927,0.1083 -1.1643,0.4122 -1.5384 1.2156c -0.9914,2.1348 -1.8423,4.0835 -3.3618 7.7492c -0.2336,0.5622 -0.4824,1.1054 -0.7787 1.6334Z" fill-opacity="1.0" stroke-width="0.0"/></g><g fill="rgb(0,0,0)" fill-opacity="0.0" stroke="rgb(0,0,0)" stroke-linecap="butt" stroke-linejoin="miter" stroke-miterlimit="10.0" stroke-opacity="1.0" stroke-width="0.819672131147541"><path class="edge" d="M 167.6100,45.9937 c -5.6470,19.7032 -14.9777,55.4728 -18.2061 86.8215c -8.1927,79.5898 5.2069,173.6025 13.6566 221.3796" fill="none" fill-opacity="0.0"/><path class="edge" d="M 167.2161,45.8808 l 0.7879,0.2258 l 2.8455,-9.9282 l -0.7879,-0.2258 Z" fill-opacity="1.0" stroke-width="0.0"/><path class="edge" d="M 162.6301,354.2710 h 0.0000 l -5.2465,0.9279 l 7.3808,8.7869 l 3.9193,-10.7854 l -5.2465,0.9279 h 0.0000 l -0.4036,0.0714 l 0.1427,0.8071 l 4.2520,-0.7520 l -2.9495,8.1167 l -5.5545,-6.6127 l 4.2520,-0.7520 l -0.1427,-0.8071 l 0.4036,-0.0714 Z" fill-opacity="1.0" stroke-width="0.0"/></g></svg>